<?xml version="1.0" encoding="UTF-8"?>
<svg width="500px" height="500px" viewBox="0 0 500 500" version="1.1" xmlns="http://www.w3.org/2000/svg" xmlns:xlink="http://www.w3.org/1999/xlink">
    <title>Berlin_de-500x500</title>
    <g id="Berlin_de-500x500" stroke="none" stroke-width="1" fill="none" fill-rule="evenodd">
        <g id="Group">
            <rect id="Rectangle" stroke="#000000" stroke-width="32" fill="#FFFFFF" x="16" y="16" width="468" height="468"></rect>
            <path d="M383.999219,163.749272 C383.999219,106.433995 361.8879,62.5 292.531205,62.5 L131.113846,62.5 C127.549184,62.5 125,65.1766973 125,68.93157 L125,431.066225 C125,434.812278 127.549184,437.5 131.113846,437.5 L297.121835,437.5 C368.513681,437.5 390.625,391.958663 390.625,331.964484 C390.625,292.854718 388.403612,263.391203 358.82678,246.784215 C356.783237,245.176874 356.783237,243.567328 358.82678,242.500176 C384.324917,225.361817 383.999219,198.575 383.999219,163.749272 Z M258.909423,125 C293.362919,125 312.5,139.001353 312.5,171.875 C312.5,204.756453 293.362919,218.75 258.909423,218.75 L206.396642,218.75 C204.216297,218.75 203.125,217.490633 203.125,214.956286 L203.125,128.796316 C203.125,126.274979 204.216297,125 206.396642,125 L258.909423,125 Z M206.635585,375 C204.296,375 203.125,373.186837 203.125,371.361169 L203.125,284.896334 C203.125,282.472947 204.296,281.25 206.635585,281.25 L253.223267,281.25 C291.373716,281.25 312.5,295.918222 312.5,328.125 C312.5,360.931998 291.373716,375 253.223267,375 L206.635585,375 Z" id="Fill-5" fill="#E40422"></path>
        </g>
    </g>
</svg>