<?xml version="1.0" standalone="no"?>
<!DOCTYPE svg PUBLIC "-//W3C//DTD SVG 20010904//EN"
 "http://www.w3.org/TR/2001/REC-SVG-20010904/DTD/svg10.dtd">
<svg version="1.0" xmlns="http://www.w3.org/2000/svg"
 width="700.000000pt" height="700.000000pt" viewBox="0 0 700.000000 700.000000"
 preserveAspectRatio="xMidYMid meet">
<metadata>
Created by potrace 1.14, written by Peter Selinger 2001-2017
</metadata>
<g transform="translate(0.000000,700.000000) scale(0.100000,-0.100000)"
fill="#000000" stroke="none">
<path d="M0 3500 l0 -3500 3500 0 3500 0 0 3500 0 3500 -3500 0 -3500 0 0
-3500z m6550 0 l0 -3050 -3050 0 -3050 0 0 3050 0 3050 3050 0 3050 0 0 -3050z"/>
<path d="M1779 6101 l-24 -19 0 -2582 0 -2582 24 -19 c24 -19 49 -20 1335 -16
1298 3 1312 3 1404 24 263 61 435 148 581 294 193 193 303 454 352 834 19 148
17 636 -4 790 -48 349 -153 544 -374 689 -40 26 -73 54 -73 61 0 7 21 29 48
48 156 116 244 262 292 482 20 89 23 139 27 442 6 383 -5 516 -57 718 -130
500 -456 781 -980 845 -53 6 -533 10 -1306 10 -1188 0 -1222 -1 -1245 -19z
m2051 -866 c292 -44 466 -189 526 -440 25 -104 23 -315 -5 -418 -57 -216 -191
-344 -426 -409 -76 -21 -102 -22 -570 -26 -457 -3 -490 -2 -502 14 -17 23 -19
1244 -3 1275 10 18 26 19 448 19 331 0 460 -4 532 -15z m-40 -2190 c125 -19
189 -38 283 -87 143 -74 245 -205 283 -364 22 -91 22 -285 0 -376 -49 -207
-189 -349 -411 -418 -133 -41 -253 -50 -674 -50 -353 0 -396 2 -413 17 -17 15
-18 48 -18 635 0 408 4 626 10 639 10 18 26 19 428 19 314 0 440 -4 512 -15z"/>
</g>
</svg>
