<svg xmlns="http://www.w3.org/2000/svg" width="662" height="452"><g fill="none" fill-rule="evenodd" transform="translate(1 .6)"><path fill="#FFF" d="M396.298 168.329c-3.075 0-5.554-1.684-7.736-4.36-1.19-1.486-2.38-2.773-4.165-3.07-2.182-.496-4.066 0-5.752 1.882-.794.891-1.587 1.783-2.38 2.576-3.77 3.963-9.025 3.963-12.794 0-.892-.892-1.686-1.883-2.48-2.774-2.578-2.675-5.95-2.675-8.528 0-.992.99-1.785 2.08-2.777 2.972-3.967 3.765-9.025 3.567-12.793-.496-.794-.792-1.488-1.684-2.281-2.576-2.579-2.575-6.05-2.575-8.53 0-.495.496-.991.991-1.388 1.487-2.082 2.576-4.562 4.062-7.537 4.16v-4.16c1.884 0 3.372-.991 4.76-2.378 1.389-1.486 2.876-3.17 4.463-4.062 3.273-1.883 6.546-1.486 9.52 1.09.993.891 1.885 1.981 2.877 3.07 2.975 3.171 6.446 3.171 9.322 0 .694-.792 1.389-1.584 2.083-2.278 3.868-3.963 9.124-3.963 12.892 0 .893.892 1.686 1.883 2.579 2.774 2.38 2.378 5.653 2.477 8.132.1.794-.793 1.587-1.685 2.281-2.478 4.066-4.458 9.322-4.557 13.488-.297.694.793 1.388 1.585 2.082 2.279 1.29 1.387 2.777 2.18 4.463 2.18v4.16l.199.199Zm0-16.744c-3.075 0-5.554-1.684-7.736-4.36-1.19-1.485-2.38-2.773-4.165-3.07-2.182-.496-4.066 0-5.752 1.882-.794.892-1.587 1.783-2.38 2.576-3.77 3.963-9.025 3.963-12.794 0-.892-.892-1.686-1.882-2.48-2.774-2.578-2.675-5.95-2.675-8.528 0-.992.99-1.785 2.08-2.777 2.972-3.967 3.765-9.025 3.567-12.793-.495-.794-.793-1.488-1.685-2.281-2.576-2.579-2.576-6.05-2.576-8.53 0-.495.495-.991.99-1.388 1.486-2.082 2.576-4.562 4.062-7.537 4.161v-4.161c1.884 0 3.372-.99 4.76-2.378 1.389-1.486 2.876-3.17 4.463-4.062 3.273-1.882 6.546-1.486 9.52 1.09.993.892 1.885 1.981 2.877 3.071 2.975 3.17 6.446 3.17 9.322 0 .694-.792 1.389-1.585 2.083-2.279 3.868-3.963 9.124-3.963 12.892 0 .893.892 1.686 1.883 2.579 2.775 2.38 2.377 5.653 2.476 8.132.099.794-.793 1.587-1.685 2.281-2.477 4.066-4.459 9.322-4.558 13.488-.297.694.792 1.388 1.585 2.082 2.278 1.29 1.387 2.777 2.18 4.463 2.18v4.161l.199.198Zm0 33.587c-3.075 0-5.554-1.685-7.736-4.36-1.19-1.486-2.38-2.774-4.165-3.07-2.182-.496-4.066 0-5.752 1.882-.794.891-1.587 1.783-2.38 2.575-3.77 3.963-9.025 3.963-12.794 0-.892-.891-1.686-1.882-2.48-2.774-2.578-2.675-5.95-2.675-8.528 0-.992.991-1.785 2.08-2.777 2.973-3.967 3.764-9.025 3.566-12.793-.496-.794-.792-1.488-1.684-2.281-2.576-2.579-2.576-6.05-2.576-8.53 0-.495.496-.991.991-1.388 1.486-2.082 2.576-4.562 4.063-7.537 4.162v-4.162c1.884 0 3.372-.99 4.76-2.377 1.389-1.487 2.876-3.17 4.463-4.062 3.273-1.883 6.546-1.487 9.52 1.09.993.891 1.885 1.98 2.877 3.07 2.975 3.171 6.446 3.171 9.322 0 .694-.792 1.389-1.585 2.083-2.278 3.868-3.963 9.124-3.963 12.892 0 .893.892 1.686 1.882 2.579 2.774 2.38 2.378 5.653 2.477 8.132.1.794-.793 1.587-1.685 2.281-2.478 4.066-4.458 9.322-4.557 13.488-.297.694.793 1.388 1.585 2.082 2.279 1.29 1.387 2.777 2.18 4.463 2.18v4.16l.199.199Zm0 15.753c-3.075 0-5.554-1.685-7.736-4.36-1.19-1.486-2.38-2.774-4.165-3.07-2.182-.496-4.066 0-5.752 1.881-.794.892-1.587 1.784-2.38 2.576-3.77 3.963-9.025 3.963-12.794 0-.892-.891-1.686-1.882-2.48-2.774-2.578-2.675-5.95-2.675-8.528 0-.992.991-1.785 2.08-2.777 2.973-3.967 3.764-9.025 3.566-12.793-.496-.794-.792-1.488-1.684-2.281-2.576-2.579-2.576-6.05-2.576-8.53 0-.495.496-.991.991-1.388 1.486-2.082 2.576-4.562 4.062-7.537 4.162v-4.162c1.884 0 3.372-.99 4.76-2.377 1.389-1.487 2.876-3.17 4.463-4.063 3.273-1.882 6.546-1.486 9.52 1.09.993.892 1.885 1.982 2.877 3.072 2.975 3.17 6.446 3.17 9.322 0 .694-.793 1.389-1.586 2.083-2.28 3.868-3.962 9.124-3.962 12.892 0 .893.893 1.686 1.883 2.579 2.775 2.38 2.378 5.653 2.477 8.132.1.794-.793 1.587-1.685 2.281-2.478 4.066-4.458 9.322-4.557 13.488-.297.694.793 1.388 1.585 2.082 2.279 1.29 1.387 2.777 2.18 4.463 2.18v4.16l.199.199Zm0 15.852c-3.075 0-5.554-1.685-7.736-4.36-1.19-1.486-2.38-2.774-4.165-3.07-2.182-.496-4.066 0-5.752 1.882-.794.891-1.587 1.783-2.38 2.575-3.77 3.964-9.025 3.964-12.794 0-.892-.891-1.686-1.882-2.48-2.774-2.578-2.675-5.95-2.675-8.528 0-.992.991-1.785 2.081-2.777 2.973-3.967 3.765-9.025 3.566-12.793-.496-.794-.792-1.488-1.684-2.281-2.576-2.579-2.576-6.05-2.576-8.53 0-.495.496-.991.991-1.388 1.486-2.082 2.576-4.562 4.063-7.537 4.162v-4.162c1.884 0 3.372-.99 4.76-2.377 1.389-1.486 2.876-3.17 4.463-4.062 3.273-1.883 6.546-1.487 9.52 1.09.993.891 1.885 1.98 2.877 3.07 2.975 3.171 6.446 3.171 9.322 0 .694-.792 1.389-1.584 2.083-2.278 3.868-3.963 9.124-3.963 12.892 0 .893.892 1.686 1.882 2.579 2.774 2.38 2.378 5.653 2.477 8.132.1.794-.793 1.587-1.685 2.281-2.478 4.066-4.458 9.322-4.557 13.488-.297.694.793 1.388 1.585 2.082 2.279 1.29 1.387 2.777 2.18 4.463 2.18v4.16l.199.199Z"/><path fill="#FFF" fill-rule="nonzero" d="M335.702 340.195c.298 0 .496-.198.496-.496v-2.18c0-.296-.198-.495-.496-.495h-.892c-.298 0-.595-.297-.595-.594v-.793c0-.297.198-.594.595-.594h.892c.298 0 .496-.198.496-.495v-2.18c0-.297-.198-.495-.496-.495h-1.19c-.297 0-.595-.298-.595-.595l-.297-4.855c0-.396.198-.792.595-.891 6.05-2.576 10.215-8.52 10.215-15.456 0-6.935-4.76-13.672-11.405-15.951a.952.952 0 0 1-.694-.892v-6.638c0-.297.297-.594.595-.594h.495c.298 0 .496-.198.496-.496v-2.18c0-.297-.198-.495-.496-.495h-3.669c-.297 0-.595-.297-.595-.594v-3.072c0-.297.298-.594.595-.594h1.587c.297 0 .496-.198.496-.495v-2.18c0-.297-.199-.495-.496-.495h-1.587c-.297 0-.595-.298-.595-.595V244.29c0-.297-.297-.495-.496-.495h-2.182c-.297 0-.496.198-.496.495v30.515c0 .297-.297.595-.595.595h-1.586c-.298 0-.496.198-.496.495v2.18c0 .297.198.495.496.495h1.586c.298 0 .595.297.595.594v3.072c0 .297-.297.594-.595.594h-3.669c-.298 0-.496.198-.496.496v2.18c0 .297.198.495.496.495h.496c.297 0 .595.297.595.594v6.638a.952.952 0 0 1-.694.892c-6.645 2.279-11.405 8.52-11.405 15.951 0 7.43 4.264 12.979 10.314 15.555.396.198.595.495.595.891l-.298 4.756c0 .297-.297.595-.595.595h-1.289c-.298 0-.496.198-.496.495v2.18c0 .297.198.495.496.495h1.09c.298 0 .596.297.596.594v.793c0 .297-.298.594-.595.594h-.992c-.297 0-.496.199-.496.496v2.18c0 .297.199.495.496.495h.794c.297 0 .595.297.595.594l-5.653 107.299c0 .495.396.99.991.99h22.81a.993.993 0 0 0 .992-.99l-5.653-107.299c0-.297.298-.594.595-.594h.694Zm-11.107-17.338c-.297-1.19-.694-3.072-.992-5.648 0-.396.199-.693.595-.693h6.744c.397 0 .595.297.595.693-.297 2.378-.595 4.26-.992 5.648 0 .198-.198.396-.495.396-.794.198-1.686.198-2.579.198-.892 0-1.686 0-2.578-.198-.199 0-.397-.198-.496-.396m-10.414-12.98c0-.89 0-1.683.199-2.476 0-.297.297-.495.595-.495h4.661c.298 0 .595.297.595.594v5.251c0 .297-.297.594-.595.594h-4.562c-.297 0-.496-.198-.595-.495a15.107 15.107 0 0 1-.298-2.972m9.323 0V307.5c0-.297.297-.594.595-.594h7.438c.297 0 .595.297.595.594v5.251c0 .297-.298.594-.595.594H323.9c-.298 0-.595-.297-.595-.594v-2.873m4.363-13.574c.893 0 1.686 0 2.579.199.198 0 .397.198.496.396.297 1.288.694 3.369.992 6.044 0 .396-.199.693-.596.693h-6.842c-.397 0-.596-.297-.596-.693a63.64 63.64 0 0 1 .992-6.044c0-.198.199-.396.496-.495.793-.199 1.686-.199 2.579-.199m6.545 24.868c.198-1.09.397-2.477.595-4.062 0-.297.298-.495.595-.495h3.471c.298 0 .496.297.298.594-.496.892-1.19 1.685-1.984 2.378-.793.793-1.587 1.387-2.48 1.982-.297.198-.594 0-.495-.397m6.05-7.728h-4.562c-.298 0-.595-.297-.595-.594V307.5c0-.297.297-.594.595-.594h4.66c.298 0 .497.198.596.495.198.793.198 1.684.198 2.477 0 .792-.099 1.981-.297 2.972 0 .297-.298.495-.595.495m-1.19-9.61h-3.67c-.297 0-.595-.198-.595-.495a84.94 84.94 0 0 0-.595-4.459c0-.297.298-.495.496-.396.892.595 1.686 1.189 2.48 1.982.892.891 1.586 1.882 2.181 2.873.1.198 0 .495-.297.495m-12.595-17.833h1.983c.298 0 .595.297.595.594v6.044c0 .297-.297.594-.595.594h-1.983c-.298 0-.596-.297-.596-.594v-6.044c0-.297.298-.594.596-.594m-8.629 14.366c.794-.793 1.587-1.388 2.48-1.982.297-.198.595 0 .496.396a128.088 128.088 0 0 0-.595 4.459c0 .297-.298.495-.595.495h-3.67c-.297 0-.397-.297-.297-.495.595-1.09 1.388-1.982 2.181-2.873m-1.586 16.248h3.47c.298 0 .596.198.596.495a97.32 97.32 0 0 0 .595 4.062c0 .298-.298.496-.496.397-.893-.595-1.686-1.19-2.48-1.982-.793-.693-1.388-1.585-1.983-2.378-.198-.198 0-.594.298-.594m8.529 10.6c0-.296.297-.594.694-.594.694 0 1.388.1 2.082.1.695 0 1.488 0 2.182-.1.298 0 .694.199.694.595l.199 3.963c0 .297-.298.594-.595.594h-4.86c-.297 0-.595-.297-.595-.594l.199-3.963Zm.198 7.828h5.256c.298 0 .595.297.595.594v.793c0 .297-.198.594-.595.594h-5.355c-.298 0-.595-.297-.595-.594v-.793c0-.297.297-.594.595-.594m11.107 110.865h-16.76c-.298 0-.595-.297-.595-.594l5.454-104.525c0-.297.298-.594.595-.594h5.852c.297 0 .595.297.595.594l5.454 104.525c0 .297-.297.594-.595.594"/><path stroke="#FFF" stroke-width="2" d="M182.777 450h402.347M395.802.793V450m.496-85.205h263.206M584.132 450v-84.71m75.372.496V130.978m-396.397.891h396.397M263.702 0v132.959M528.595.396H262.81m264.892.496v131.076"/><path fill="#FFF" fill-rule="nonzero" d="M546.446 3.666a3.66 3.66 0 0 1-3.67 3.666c-2.082 0-3.669-1.586-3.669-3.666S540.694 0 542.777 0s3.67 1.585 3.67 3.666m19.14 0a3.66 3.66 0 0 1-3.67 3.666c-2.082 0-3.67-1.586-3.67-3.666S559.836 0 561.918 0c2.083 0 3.67 1.585 3.67 3.666m19.934 0a3.66 3.66 0 0 1-3.67 3.666c-2.082 0-3.67-1.586-3.67-3.666S579.77 0 581.852 0c2.083 0 3.67 1.585 3.67 3.666m19.14 0a3.66 3.66 0 0 1-3.67 3.666c-2.082 0-3.669-1.586-3.669-3.666S598.91 0 600.992 0c2.082 0 3.67 1.585 3.67 3.666m19.04 0a3.66 3.66 0 0 1-3.669 3.666c-2.083 0-3.67-1.586-3.67-3.666S617.95 0 620.034 0s3.67 1.585 3.67 3.666m-77.257 19.022a3.66 3.66 0 0 1-3.67 3.666c-2.082 0-3.669-1.585-3.669-3.666 0-2.08 1.587-3.666 3.67-3.666s3.67 1.586 3.67 3.666m19.14 0a3.66 3.66 0 0 1-3.67 3.666c-2.082 0-3.67-1.585-3.67-3.666 0-2.08 1.588-3.666 3.67-3.666 2.083 0 3.67 1.586 3.67 3.666m19.934 0a3.66 3.66 0 0 1-3.67 3.666c-2.082 0-3.67-1.585-3.67-3.666 0-2.08 1.588-3.666 3.67-3.666 2.083 0 3.67 1.586 3.67 3.666m19.14 0a3.66 3.66 0 0 1-3.67 3.666c-2.082 0-3.669-1.585-3.669-3.666 0-2.08 1.587-3.666 3.67-3.666 2.082 0 3.67 1.586 3.67 3.666m19.04 0a3.66 3.66 0 0 1-3.669 3.666c-2.083 0-3.67-1.585-3.67-3.666 0-2.08 1.587-3.666 3.67-3.666s3.67 1.586 3.67 3.666m-77.257 19.023a3.66 3.66 0 0 1-3.67 3.665c-2.082 0-3.669-1.585-3.669-3.665s1.587-3.666 3.67-3.666 3.67 1.585 3.67 3.666m19.14 0a3.66 3.66 0 0 1-3.67 3.665c-2.082 0-3.67-1.585-3.67-3.665s1.588-3.666 3.67-3.666c2.083 0 3.67 1.585 3.67 3.666m19.934 0a3.66 3.66 0 0 1-3.67 3.665c-2.082 0-3.67-1.585-3.67-3.665s1.588-3.666 3.67-3.666c2.083 0 3.67 1.585 3.67 3.666m19.14 0a3.66 3.66 0 0 1-3.67 3.665c-2.082 0-3.669-1.585-3.669-3.665s1.587-3.666 3.67-3.666c2.082 0 3.67 1.585 3.67 3.666m19.04 0a3.66 3.66 0 0 1-3.669 3.665c-2.083 0-3.67-1.585-3.67-3.665s1.587-3.666 3.67-3.666 3.67 1.585 3.67 3.666m-77.257 19.121a3.66 3.66 0 0 1-3.67 3.666c-2.082 0-3.669-1.585-3.669-3.666 0-2.08 1.587-3.666 3.67-3.666s3.67 1.586 3.67 3.666m19.14 0a3.66 3.66 0 0 1-3.67 3.666c-2.082 0-3.67-1.585-3.67-3.666 0-2.08 1.588-3.666 3.67-3.666 2.083 0 3.67 1.586 3.67 3.666m19.934 0a3.66 3.66 0 0 1-3.67 3.666c-2.082 0-3.67-1.585-3.67-3.666 0-2.08 1.588-3.666 3.67-3.666 2.083 0 3.67 1.586 3.67 3.666m19.14 0a3.66 3.66 0 0 1-3.67 3.666c-2.082 0-3.669-1.585-3.669-3.666 0-2.08 1.587-3.666 3.67-3.666 2.082 0 3.67 1.586 3.67 3.666m19.04 0a3.66 3.66 0 0 1-3.669 3.666c-2.083 0-3.67-1.585-3.67-3.666 0-2.08 1.587-3.666 3.67-3.666s3.67 1.586 3.67 3.666m-77.257 19.023a3.66 3.66 0 0 1-3.67 3.665c-2.082 0-3.669-1.585-3.669-3.665s1.587-3.666 3.67-3.666 3.67 1.585 3.67 3.666m19.14 0a3.66 3.66 0 0 1-3.67 3.665c-2.082 0-3.67-1.585-3.67-3.665s1.588-3.666 3.67-3.666c2.083 0 3.67 1.585 3.67 3.666m19.934 0a3.66 3.66 0 0 1-3.67 3.665c-2.082 0-3.67-1.585-3.67-3.665s1.588-3.666 3.67-3.666c2.083 0 3.67 1.585 3.67 3.666m19.14 0a3.66 3.66 0 0 1-3.67 3.665c-2.082 0-3.669-1.585-3.669-3.665s1.587-3.666 3.67-3.666c2.082 0 3.67 1.585 3.67 3.666m19.04 0a3.66 3.66 0 0 1-3.669 3.665c-2.083 0-3.67-1.585-3.67-3.665s1.587-3.666 3.67-3.666 3.67 1.585 3.67 3.666m-77.257 19.22a3.66 3.66 0 0 1-3.67 3.666c-2.082 0-3.669-1.585-3.669-3.666 0-2.08 1.587-3.665 3.67-3.665s3.67 1.585 3.67 3.665m19.14 0a3.66 3.66 0 0 1-3.67 3.666c-2.082 0-3.67-1.585-3.67-3.666 0-2.08 1.588-3.665 3.67-3.665 2.083 0 3.67 1.585 3.67 3.665m19.934 0a3.66 3.66 0 0 1-3.67 3.666c-2.082 0-3.67-1.585-3.67-3.666 0-2.08 1.588-3.665 3.67-3.665 2.083 0 3.67 1.585 3.67 3.665m19.14 0a3.66 3.66 0 0 1-3.67 3.666c-2.082 0-3.669-1.585-3.669-3.666 0-2.08 1.587-3.665 3.67-3.665 2.082 0 3.67 1.585 3.67 3.665m19.04 0a3.66 3.66 0 0 1-3.669 3.666c-2.083 0-3.67-1.585-3.67-3.666 0-2.08 1.587-3.665 3.67-3.665s3.67 1.585 3.67 3.665m-77.257 19.22a3.66 3.66 0 0 1-3.67 3.667c-2.082 0-3.669-1.586-3.669-3.666s1.587-3.666 3.67-3.666 3.67 1.585 3.67 3.666m19.14 0a3.66 3.66 0 0 1-3.67 3.666c-2.082 0-3.67-1.586-3.67-3.666s1.588-3.666 3.67-3.666c2.083 0 3.67 1.585 3.67 3.666m19.934 0a3.66 3.66 0 0 1-3.67 3.666c-2.082 0-3.67-1.586-3.67-3.666s1.588-3.666 3.67-3.666c2.083 0 3.67 1.585 3.67 3.666m19.14 0a3.66 3.66 0 0 1-3.67 3.666c-2.082 0-3.669-1.586-3.669-3.666s1.587-3.666 3.67-3.666c2.082 0 3.67 1.585 3.67 3.666m19.04 0a3.66 3.66 0 0 1-3.669 3.666c-2.083 0-3.67-1.586-3.67-3.666s1.587-3.666 3.67-3.666 3.67 1.585 3.67 3.666M641.85 3.666a3.66 3.66 0 0 1-3.67 3.666c-2.082 0-3.669-1.586-3.669-3.666S636.1 0 638.182 0c2.082 0 3.67 1.585 3.67 3.666m0 19.022a3.66 3.66 0 0 1-3.67 3.666c-2.083 0-3.67-1.585-3.67-3.666 0-2.08 1.587-3.666 3.67-3.666 2.082 0 3.67 1.586 3.67 3.666m0 19.023a3.66 3.66 0 0 1-3.67 3.665c-2.083 0-3.67-1.585-3.67-3.665s1.587-3.666 3.67-3.666c2.082 0 3.67 1.585 3.67 3.666m0 19.121a3.66 3.66 0 0 1-3.67 3.666c-2.083 0-3.67-1.585-3.67-3.666 0-2.08 1.587-3.666 3.67-3.666 2.082 0 3.67 1.586 3.67 3.666M660 3.666a3.66 3.66 0 0 1-3.67 3.666c-2.082 0-3.669-1.586-3.669-3.666S654.248 0 656.331 0C658.413 0 660 1.585 660 3.666m0 19.022a3.66 3.66 0 0 1-3.67 3.666c-2.082 0-3.669-1.585-3.669-3.666 0-2.08 1.587-3.666 3.67-3.666 2.082 0 3.669 1.586 3.669 3.666m0 19.023a3.66 3.66 0 0 1-3.67 3.665c-2.082 0-3.669-1.585-3.669-3.665s1.587-3.666 3.67-3.666c2.082 0 3.669 1.585 3.669 3.666m0 19.121a3.66 3.66 0 0 1-3.67 3.666c-2.082 0-3.669-1.585-3.669-3.666 0-2.08 1.587-3.666 3.67-3.666 2.082 0 3.669 1.586 3.669 3.666m-18.149 19.023a3.66 3.66 0 0 1-3.67 3.665c-2.082 0-3.669-1.585-3.669-3.665s1.587-3.666 3.67-3.666c2.082 0 3.67 1.585 3.67 3.666m18.148 0a3.66 3.66 0 0 1-3.67 3.665c-2.082 0-3.669-1.585-3.669-3.665s1.587-3.666 3.67-3.666c2.082 0 3.669 1.585 3.669 3.666m-18.149 19.22a3.66 3.66 0 0 1-3.67 3.666c-2.082 0-3.669-1.585-3.669-3.666 0-2.08 1.587-3.665 3.67-3.665 2.082 0 3.67 1.585 3.67 3.665m18.148 0a3.66 3.66 0 0 1-3.67 3.666c-2.082 0-3.669-1.585-3.669-3.666 0-2.08 1.587-3.665 3.67-3.665 2.082 0 3.669 1.585 3.669 3.665m-18.149 19.22a3.66 3.66 0 0 1-3.67 3.667c-2.082 0-3.669-1.586-3.669-3.666s1.587-3.666 3.67-3.666c2.082 0 3.67 1.585 3.67 3.666m18.148 0a3.66 3.66 0 0 1-3.67 3.666c-2.082 0-3.669-1.586-3.669-3.666s1.587-3.666 3.67-3.666c2.082 0 3.669 1.585 3.669 3.666"/><path fill="#FFAFCC" fill-rule="nonzero" d="M482.777 100.363s-2.083-13.573-2.975-19.22h.396c.893-.198 1.19-1.19.794-1.883-2.281-3.963-3.174-8.917-3.174-13.87 0-4.954.496-5.945 1.488-8.62 0-.198.099-.297.198-.495l.1-.297c.594-1.388 1.784-4.26 2.082-7.63.297-2.674 0-4.854-.496-6.935-.198-.99-.793-2.675-1.19-3.467 0-.1-.1-.198-.198-.297.793-.793.991-2.18.396-3.27-.793-1.288-2.28-1.783-3.47-1.189-.1 0-.397.297-.497.397-.198-.199-.297-.199-.297-.199l-.595-.396h-.1a9.99 9.99 0 0 0-3.867-.793c-1.389 0-1.29 0-1.984.199a10.007 10.007 0 0 0-3.768 1.684c-.595.198-1.19.198-1.19.198h-1.587c-.694.1-1.587 0-1.587 0a.678.678 0 0 0-.694.694c0 .396.198 2.18.198 2.18 0 .495.298 1.09.695 1.386l.297.298c.198.495.496.891.793 1.09h.298c.297-1.19.992 0 2.38-.595.298-.198.496.594.397.99v.298c-.397.693-.992 1.189-1.785 1.288-.595 0-.893.099-.893.198 0 .694 0 1.189.694 1.585.199.1.298.1.298.1.992.297 4.066 1.386.198 5.944 0 0-.396.396-.595.792 0 .1-.198.199-.198.397v.198l-11.603-4.36c-.397-.099-.794-.495-.992-.792l-1.091-1.982c-.694-.99-1.29-1.387-2.579-1.486h-1.586c-.298 0-.496 0-.595.298 0 .198 0 .792.297 1.486l.992 1.783c0 .1 1.29 2.873 1.29 2.873.098.297.297.694.594.892l11.802 8.917-12.496 6.241c-.397.199-.793.199-1.19.1-.496-.1-1.091-.298-1.091-.298-2.083-.891-3.57-.297-4.463.496l-.397.297c-.297.297-.198.792.199.99 0 0 1.983 1.19 2.38 1.487l3.074 1.783c.496.297.992.396 1.587.297l12.1-2.477c.297 4.657 1.487 8.52 1.487 8.52-2.182 2.081-5.157 6.144-6.149 11.593-.595 3.27-.397 6.241.496 9.71-1.686 0-3.372.296-4.661 1.287-1.29.892-1.587 2.477-1.587 3.27h10.215c.992 0 1.29-.991 1.29-.991 0-.297.098-.694.198-.99.297-1.883.495-3.865 2.181-7.233 1.389-2.775 3.769-5.251 3.769-5.251s3.967 5.845 10.71 9.907c-1.289 0-2.975.495-3.966 1.09-1.587.892-1.984 2.675-1.984 3.468h9.818c.695 0 1.19-.397 1.488-.991v-.595"/><path fill="#FFF" fill-rule="nonzero" d="M351.372 71.433c0 1.883-1.587 3.468-3.471 3.468-1.884 0-3.471-1.585-3.471-3.468V65.39a3.554 3.554 0 0 1 3.57-3.567 3.448 3.448 0 0 1 3.471 3.468v6.142h-.1Zm-13.686 22.094h-7.934c-7.537 0-13.686-6.143-13.686-13.672v-7.827s.1-.198.198-.297l14.281-6.44c.1 0 .298 0 .397.198.397 1.189.794 2.774.198 4.36-.495 1.485-1.884 2.674-3.966 3.467h-.1c-.099 0-.198.198-.198.396v1.882c0 .298.198.496.397.496h1.289c.397 0 .893.198 1.29.396.793.396 1.586.892 2.181 1.486.595.595 1.19 1.387 1.488 2.18.198.396.297.793.396 1.288v1.288c0 .198.199.396.496.396h1.885c.297 0 .495-.198.495-.495v-1.585a6.293 6.293 0 0 0-.595-1.784c-.496-1.189-1.19-2.18-2.082-3.071a10.676 10.676 0 0 0-2.38-1.783c-.1 0-.1-.298 0-.298a7.923 7.923 0 0 0 1.289-1.288c.198-.198.496-.198.595 0a6.441 6.441 0 0 0 4.76 2.08c1.884 0 2.48-.395 3.471-1.089.199-.099.496 0 .595.198.992 2.08 3.174 3.567 5.653 3.567 2.48 0 1.984-.297 2.876-.694.298-.099.595 0 .595.397v2.477c0 7.53-6.149 13.672-13.686 13.672M308.43 51.024c-.397-.892-.397-1.784 0-2.675.396-.793 1.09-1.486 1.884-1.784 1.785-.792 3.769 0 4.463 1.784l7.14 17.635c0 .1-.099.198-.198.297l-5.851 2.675c-.199 0-.397-.198-.496-.297l-7.041-17.536.099-.1Zm19.834-12.286h.1a3.342 3.342 0 0 1 3.372 3.369v19.22c0 .199-.1.298-.199.397l-6.446 2.873c-.198 0-.298 0-.397-.198V42.107a3.342 3.342 0 0 1 3.372-3.369m9.917 20.31a3.554 3.554 0 0 1 3.57 3.568v6.043a3.554 3.554 0 0 1-3.57 3.567 3.448 3.448 0 0 1-3.47-3.468v-6.142a3.448 3.448 0 0 1 3.47-3.468m10.116-.198c-1.388 0-2.578.396-3.67 1.09-.198.099-.495 0-.594-.199-.992-2.08-3.174-3.566-5.653-3.566-2.48 0-1.984.297-2.876.693-.298.1-.595 0-.595-.396V42.206a6.219 6.219 0 0 0-6.248-6.242h-.1a6.219 6.219 0 0 0-6.247 6.242V57.86c0 .099-.199.099-.199 0l-4.264-10.601c-1.29-3.17-4.959-4.657-8.132-3.369h-.1c-1.586.694-2.776 1.883-3.371 3.468-.595 1.585-.595 3.27 0 4.756l7.438 18.428v9.412c0 9.115 7.438 16.446 16.462 16.446h7.934c9.124 0 16.463-7.43 16.463-16.446V65.39c0-3.468-2.678-6.341-6.149-6.44"/><path stroke="#FFF" stroke-width="2" d="M0 66.579c0 36.261 29.355 65.587 65.554 65.587 36.198 0 65.553-29.326 65.553-65.587C131.107 30.317 101.752.99 65.554.99 29.355.99 0 30.317 0 66.579Z"/><path fill="#00AB7F" fill-rule="nonzero" d="M85.09 52.807c1.092 1.09 1.092 2.972 0 4.161L61.786 80.251c-1.09 1.189-2.975 1.189-4.165 0l-11.703-11.69c-1.09-1.09-1.09-2.973 0-4.162 1.091-1.09 2.976-1.09 4.166 0l9.62 9.61 21.322-21.3c1.09-1.09 2.975-1.09 4.165 0l-.1.098Z"/><path fill="#FFAFCC" fill-rule="nonzero" d="m193.785 66.579-9.421 9.412c-1.091 1.09-1.091 2.972 0 4.062 1.09 1.09 2.975 1.09 4.066 0l9.52-9.412 9.422 9.412c1.09 1.09 2.975 1.09 4.066 0 1.09-1.09 1.09-2.972 0-4.062l-9.421-9.412 9.421-9.413c1.09-1.09 1.09-2.972 0-4.062-1.09-1.09-2.975-1.09-4.066 0l-9.422 9.413-9.421-9.413c-1.091-1.09-2.975-1.09-4.066 0-1.091 1.09-1.091 2.973 0 4.062l9.421 9.413h-.099Z"/><path stroke="#FFF" stroke-width="2" d="M132.397 66.579c0 36.261 29.355 65.587 65.553 65.587 36.199 0 65.554-29.326 65.554-65.587C263.504 30.317 234.15.99 197.95.99c-36.198 0-65.553 29.326-65.553 65.588Z"/><path fill="#9285BE" fill-rule="nonzero" d="M564.496 236.394a14.993 14.993 0 0 0 1.587-6.737c0-8.422-6.843-15.159-15.174-15.159-4.413 0-6.446 1.09-9.025 2.972-4.363-8.322-13.19-14.068-23.305-14.068-10.116 0-25.686 11.096-26.281 25.066-9.918 3.467-17.058 12.978-17.058 24.075 0 11.096 11.305 25.66 25.289 25.76h60.892c11.604 0 21.124-9.413 21.124-21.104 0-11.69-7.834-19.32-18.05-20.805Z"/><path stroke="#FFF" stroke-width="3" d="M658.81 158.976c-3.67-1.981-7.934-3.071-12.397-3.071-14.082 0-25.686 11.096-26.28 25.066-9.918 3.468-17.059 12.979-17.059 24.075 0 11.097 11.306 25.364 25.29 25.463 13.983.099 30.446 0 30.446 0v-71.543.01ZM432.893 292.47c-.695-13.97-12.199-25.066-26.281-25.066-4.91 0-7.14.793-10.314 2.08v72.544h28.363v-.02c13.984-.1 25.29-11.493 25.29-25.462 0-13.97-7.141-20.608-17.058-24.076Z"/><path stroke="#FFF" d="m396.298 439.2 34.314-9.808m11.206 4.855-11.206-4.855m50.776-21.697-39.967 26.552m52.067-19.122-12.695-7.43m39.967-18.824-27.867 26.354m64.86-13.277-36.993-13.077m63.372-14.664-26.876 27.84"/><ellipse cx="431.107" cy="429.194" fill="#00A982" fill-rule="nonzero" rx="2.182" ry="2.18"/><ellipse cx="481.091" cy="408.785" fill="#00A982" fill-rule="nonzero" rx="2.182" ry="2.18"/><ellipse cx="520.76" cy="388.871" fill="#00A982" fill-rule="nonzero" rx="2.182" ry="2.18"/><path stroke="#FFF" d="m396.298 418.791 24.793-17.536m27.967 17.24-27.967-17.24"/><ellipse cx="421.686" cy="401.552" fill="#F6B4CC" fill-rule="nonzero" rx="2.182" ry="2.18"/><path stroke="#FFF" d="m473.95 387.384-25.289 31.407m50.38-3.765-25.09-27.642m47.504 14.664-22.91 12.78m33.124-8.718-7.636-4.062m17.851-3.567-10.611 7.926m25.785.495-15.174-8.421m41.554-11.79-26.975 20.211"/><ellipse cx="474.248" cy="387.682" fill="#F6B4CC" fill-rule="nonzero" rx="2.182" ry="2.18"/><ellipse cx="523.24" cy="402.048" fill="#F6B4CC" fill-rule="nonzero" rx="2.182" ry="2.18"/><ellipse cx="542.281" cy="398.679" fill="#F6B4CC" fill-rule="nonzero" rx="2.182" ry="2.18"/><path stroke="#FFF" d="m396.298 405.911 21.818 13.97m29.157-16.744-29.157 16.744M504 429.194l-56.727-26.057m102.248-16.446L504 429.194m78.942-23.877-33.421-18.626"/><ellipse cx="447.967" cy="403.137" fill="#9285BE" fill-rule="nonzero" rx="2.182" ry="2.18"/><ellipse cx="549.521" cy="387.682" fill="#9285BE" fill-rule="nonzero" rx="2.182" ry="2.18"/><path fill="#FFF" fill-rule="nonzero" d="M258.575 370.878h-4.205l-71.355 71.285v4.2l75.56-75.485Zm-12.892 0h-4.205l-58.463 58.405v4.201l62.668-62.606Zm-12.853 0h-4.215l-45.6 45.506v4.2l49.815-49.706Zm-38.688 0h-4.215l-6.912 6.906v4.2l11.127-11.106Zm12.883 0h-4.215l-19.795 19.776v4.21l24.01-23.986Zm12.882 0h-4.205l-32.687 32.656v4.2l36.892-36.856Zm41.177 61.863v-4.2l-20.37 20.33h4.205l16.165-16.13Zm0 12.87v-4.2l-7.477 7.46h4.214l3.263-3.26Zm0-25.74v-4.2l-33.263 33.2h4.205l29.058-29Zm0-12.9v-4.2l-46.096 46.1h4.205l41.891-41.9Zm0-12.88v-4.21l-58.978 58.99h4.205l54.773-54.78Zm-67.696 54.78 67.696-67.63v-4.2l-71.9 71.83h4.204Z"/></g></svg>