<svg xmlns="http://www.w3.org/2000/svg" xmlns:xlink="http://www.w3.org/1999/xlink" width="362" height="143"><defs><path id="a" d="M0 0h66.267v64.952H0z"/><path id="c" d="M0 0h22.678v36H0z"/><path id="e" d="M0 0h26.31v31.524H0z"/><path id="g" d="M0 0h45.16v43.238H0z"/></defs><g fill="none" fill-rule="evenodd"><g transform="translate(294.242 1.767)"><mask id="b" fill="#fff"><use xlink:href="#a"/></mask><path fill="#FFF" fill-rule="nonzero" d="M4.025 2c0 1.048-.883 1.905-1.963 1.905S.098 3.048.098 2 .982.095 2.062.095 4.025.952 4.025 2m10.406 0c0 1.048-.883 1.905-1.963 1.905S10.504 3.048 10.504 2 11.388.095 12.468.095 14.431.952 14.431 2m10.996 0c0 1.048-.884 1.905-1.964 1.905S21.5 3.048 21.5 2 22.383.095 23.463.095 25.427.952 25.427 2m10.406 0c0 1.048-.883 1.905-1.963 1.905S31.906 3.048 31.906 2 32.79.095 33.87.095 35.833.952 35.833 2m10.505 0c0 1.048-.884 1.905-1.964 1.905S42.411 3.048 42.411 2 43.294.095 44.374.095 46.338.952 46.338 2M4.025 12.095c0 1.048-.883 1.905-1.963 1.905S.098 13.143.098 12.095c0-1.047.884-1.905 1.964-1.905s1.963.858 1.963 1.905m10.406 0c0 1.048-.883 1.905-1.963 1.905s-1.964-.857-1.964-1.905c0-1.047.884-1.905 1.964-1.905s1.963.858 1.963 1.905m10.996 0c0 1.048-.884 1.905-1.964 1.905s-1.963-.857-1.963-1.905c0-1.047.883-1.905 1.963-1.905s1.964.858 1.964 1.905m10.406 0c0 1.048-.883 1.905-1.963 1.905s-1.964-.857-1.964-1.905c0-1.047.884-1.905 1.964-1.905s1.963.858 1.963 1.905m10.505 0c0 1.048-.884 1.905-1.964 1.905s-1.963-.857-1.963-1.905c0-1.047.883-1.905 1.963-1.905s1.964.858 1.964 1.905M4.025 22.285c0 1.048-.883 1.905-1.963 1.905S.098 23.333.098 22.286c0-1.048.884-1.905 1.964-1.905s1.963.857 1.963 1.905m10.406 0c0 1.047-.883 1.904-1.963 1.904s-1.964-.857-1.964-1.904c0-1.048.884-1.905 1.964-1.905s1.963.857 1.963 1.905m10.996 0c0 1.047-.884 1.904-1.964 1.904s-1.963-.857-1.963-1.904c0-1.048.883-1.905 1.963-1.905s1.964.857 1.964 1.905m10.406 0c0 1.047-.883 1.904-1.963 1.904s-1.964-.857-1.964-1.904c0-1.048.884-1.905 1.964-1.905s1.963.857 1.963 1.905m10.505 0c0 1.047-.884 1.904-1.964 1.904s-1.963-.857-1.963-1.904c0-1.048.883-1.905 1.963-1.905s1.964.857 1.964 1.905M4.025 32.38c0 1.048-.883 1.905-1.963 1.905S.098 33.429.098 32.38s.884-1.905 1.964-1.905 1.963.857 1.963 1.905m10.406 0c0 1.048-.883 1.905-1.963 1.905s-1.964-.857-1.964-1.905.884-1.905 1.964-1.905 1.963.857 1.963 1.905m10.996 0c0 1.048-.884 1.905-1.964 1.905S21.5 33.429 21.5 32.38s.883-1.905 1.963-1.905 1.964.857 1.964 1.905m10.406 0c0 1.048-.883 1.905-1.963 1.905s-1.964-.857-1.964-1.905.884-1.905 1.964-1.905 1.963.857 1.963 1.905m10.505 0c0 1.048-.884 1.905-1.964 1.905s-1.963-.857-1.963-1.905.883-1.905 1.963-1.905 1.964.857 1.964 1.905M4.025 42.571c0 1.048-.883 1.905-1.963 1.905S.098 43.62.098 42.571c0-1.047.884-1.904 1.964-1.904s1.963.857 1.963 1.904m10.406 0c0 1.048-.883 1.905-1.963 1.905s-1.964-.857-1.964-1.905c0-1.047.884-1.904 1.964-1.904s1.963.857 1.963 1.904m10.996 0c0 1.048-.884 1.905-1.964 1.905S21.5 43.62 21.5 42.571c0-1.047.883-1.904 1.963-1.904s1.964.857 1.964 1.904m10.406 0c0 1.048-.883 1.905-1.963 1.905s-1.964-.857-1.964-1.905c0-1.047.884-1.904 1.964-1.904s1.963.857 1.963 1.904m10.505 0c0 1.048-.884 1.905-1.964 1.905s-1.963-.857-1.963-1.905c0-1.047.883-1.904 1.963-1.904s1.964.857 1.964 1.904M4.025 52.761c0 1.049-.883 1.906-1.963 1.906S.098 53.81.098 52.762s.884-1.905 1.964-1.905 1.963.857 1.963 1.905m10.406 0c0 1.048-.883 1.905-1.963 1.905s-1.964-.857-1.964-1.905.884-1.905 1.964-1.905 1.963.857 1.963 1.905m10.996 0c0 1.048-.884 1.905-1.964 1.905S21.5 53.81 21.5 52.762s.883-1.905 1.963-1.905 1.964.857 1.964 1.905m10.406 0c0 1.048-.883 1.905-1.963 1.905s-1.964-.857-1.964-1.905.884-1.905 1.964-1.905 1.963.857 1.963 1.905m10.505 0c0 1.048-.884 1.905-1.964 1.905s-1.963-.857-1.963-1.905.883-1.905 1.963-1.905 1.964.857 1.964 1.905M4.025 63.048c0 1.047-.883 1.904-1.963 1.904S.098 64.095.098 63.048c0-1.048.884-1.905 1.964-1.905s1.963.857 1.963 1.905m10.406 0c0 1.047-.883 1.904-1.963 1.904s-1.964-.857-1.964-1.904c0-1.048.884-1.905 1.964-1.905s1.963.857 1.963 1.905m10.996 0c0 1.047-.884 1.904-1.964 1.904s-1.963-.857-1.963-1.904c0-1.048.883-1.905 1.963-1.905s1.964.857 1.964 1.905m10.406 0c0 1.047-.883 1.904-1.963 1.904s-1.964-.857-1.964-1.904c0-1.048.884-1.905 1.964-1.905s1.963.857 1.963 1.905m10.505 0c0 1.047-.884 1.904-1.964 1.904s-1.963-.857-1.963-1.904c0-1.048.883-1.905 1.963-1.905s1.964.857 1.964 1.905M56.253 2c0 1.048-.883 1.905-1.963 1.905S52.326 3.048 52.326 2 53.21.095 54.29.095 56.253.952 56.253 2m0 10.095c0 1.048-.883 1.905-1.963 1.905s-1.964-.857-1.964-1.905c0-1.047.884-1.905 1.964-1.905s1.963.858 1.963 1.905m0 10.19c0 1.048-.883 1.905-1.963 1.905s-1.964-.857-1.964-1.904c0-1.048.884-1.905 1.964-1.905s1.963.857 1.963 1.905m0 10.095c0 1.048-.883 1.905-1.963 1.905s-1.964-.857-1.964-1.905.884-1.905 1.964-1.905 1.963.857 1.963 1.905M66.267 2c0 1.048-.884 1.905-1.964 1.905S62.34 3.048 62.34 2 63.223.095 64.303.095 66.267.952 66.267 2m0 10.095c0 1.048-.884 1.905-1.964 1.905s-1.963-.857-1.963-1.905c0-1.047.883-1.905 1.963-1.905s1.964.858 1.964 1.905m0 10.19c0 1.048-.884 1.905-1.964 1.905s-1.963-.857-1.963-1.904c0-1.048.883-1.905 1.963-1.905s1.964.857 1.964 1.905m0 10.095c0 1.048-.884 1.905-1.964 1.905s-1.963-.857-1.963-1.905.883-1.905 1.963-1.905 1.964.857 1.964 1.905m-10.014 10.19c0 1.048-.883 1.905-1.963 1.905s-1.964-.857-1.964-1.905c0-1.047.884-1.904 1.964-1.904s1.963.857 1.963 1.904m10.014 0c0 1.048-.884 1.905-1.964 1.905s-1.963-.857-1.963-1.905c0-1.047.883-1.904 1.963-1.904s1.964.857 1.964 1.904m-10.014 10.19c0 1.049-.883 1.906-1.963 1.906s-1.964-.857-1.964-1.905.884-1.905 1.964-1.905 1.963.857 1.963 1.905m10.014 0c0 1.048-.884 1.905-1.964 1.905s-1.963-.857-1.963-1.905.883-1.905 1.963-1.905 1.964.857 1.964 1.905M56.253 63.048c0 1.047-.883 1.904-1.963 1.904s-1.964-.857-1.964-1.904c0-1.048.884-1.905 1.964-1.905s1.963.857 1.963 1.905m10.014 0c0 1.047-.884 1.904-1.964 1.904s-1.963-.857-1.963-1.904c0-1.048.883-1.905 1.963-1.905s1.964.857 1.964 1.905" mask="url(#b)"/></g><path stroke="#FFF" stroke-width="2" d="M290.512 72.719H361V141.1h-70.488V72.719Zm-73.04-70.762h71.47V71.29h-71.47V1.957Zm-72.55 0h72.55M1 36.814C1 55.862 16.904 71.29 36.44 71.29c19.537 0 35.44-15.428 35.44-34.476 0-19.047-15.805-34.476-35.44-34.476C16.806 2.338 1 17.767 1 36.814Z"/><path fill="#00AB7F" fill-rule="nonzero" d="M47.043 29.576c.59.572.59 1.524 0 2.19L34.38 44.053c-.59.572-1.571.572-2.258 0l-6.283-6.095c-.59-.571-.59-1.524 0-2.19.589-.572 1.57-.572 2.258 0l5.203 5.047 11.486-11.143c.59-.571 1.57-.571 2.258 0v-.095Z"/><path fill="#FFAFCC" fill-rule="nonzero" d="m105.947 36.814-5.105 4.953a1.463 1.463 0 0 0 0 2.095c.589.571 1.57.571 2.16 0l5.105-4.952 5.105 4.952c.589.571 1.57.571 2.16 0a1.463 1.463 0 0 0 0-2.095l-5.106-4.953 5.105-4.952a1.463 1.463 0 0 0 0-2.095 1.575 1.575 0 0 0-2.16 0l-5.104 4.952-5.105-4.952a1.575 1.575 0 0 0-2.16 0 1.463 1.463 0 0 0 0 2.095l5.105 4.952Z"/><path stroke="#FFF" stroke-width="2" d="M72.666 36.814c0 19.048 15.904 34.476 35.44 34.476 19.537 0 35.441-15.428 35.441-34.476 0-19.047-15.904-34.476-35.44-34.476-19.537 0-35.44 15.429-35.44 34.476Z"/><g transform="translate(241.818 19.1)"><mask id="d" fill="#fff"><use xlink:href="#c"/></mask><path fill="#FFAFCC" fill-rule="nonzero" d="M22.678 35.143s-1.08-6.953-1.57-9.905h.196c.49 0 .687-.571.392-.952-1.178-2-1.669-4.572-1.669-7.143 0-2.572.295-3.048.786-4.476v-.381c.294-.667.883-2.19 1.08-3.905.098-1.333 0-2.476-.295-3.62-.098-.475-.393-1.332-.589-1.809 0 0 0-.095-.098-.19a1.56 1.56 0 0 0 .196-1.714C20.714.38 19.93.095 19.242.476c0 0-.196.095-.295.19-.098 0-.196-.095-.196-.095s-.196-.095-.294-.19C17.867.095 17.18 0 16.395 0c-.786 0-.687 0-1.08.095a7.194 7.194 0 0 0-1.963.857c-.295 0-.59.096-.59.096h-1.57c-.197 0-.393.19-.393.38 0 .191.098 1.143.098 1.143 0 .286.197.572.393.667.196.095.098.095.098.19 0 .286.295.477.393.572h.196c.196-.571.491 0 1.276-.286.197-.095.295.286.197.476v.191c-.197.38-.59.571-.982.667-.295 0-.49 0-.49.095 0 .38 0 .667.392.857h.196c.59.095 2.16.762.098 3.048 0 0-.196.19-.294.38 0 0 0 .096-.098.191L6.185 7.524c-.196 0-.393-.286-.491-.381l-.589-1.048c-.393-.476-.687-.666-1.374-.762h-.884c-.196 0-.295 0-.295.19 0 .096 0 .382.099.763l.49.952.688 1.524c0 .19.196.286.294.476l6.283 4.572-6.577 3.238a.643.643 0 0 1-.59 0c-.196 0-.588-.19-.588-.19-1.08-.477-1.866-.096-2.356.285l-.197.19c-.196.19-.098.381 0 .477 0 0 1.08.571 1.276.761l1.67.953c.294.095.588.19.785.095l6.381-1.238a24.49 24.49 0 0 0 .785 4.38c-1.178 1.049-2.748 3.144-3.24 6-.294 1.715-.196 3.239.295 4.953-.883 0-1.767.19-2.454.667-.687.476-.786 1.238-.786 1.714h5.4c.49 0 .687-.476.687-.476v-.476c.197-.953.295-2 1.178-3.714.687-1.429 1.964-2.667 1.964-2.667s2.061 3.048 5.694 5.143c-.687 0-1.571.285-2.062.571-.785.476-1.08 1.334-1.08 1.81h5.203c.393 0 .688-.19.786-.572v-.285" mask="url(#d)"/></g><g transform="translate(168.287 20.91)"><mask id="f" fill="#fff"><use xlink:href="#e"/></mask><path fill="#FFF" fill-rule="nonzero" d="M24.74 18.476c0 1.048-.884 1.81-1.866 1.81-.981 0-1.865-.857-1.865-1.81v-3.143c0-1.047.884-1.904 1.865-1.81.982 0 1.866.858 1.866 1.81v3.238-.095ZM17.377 30h-3.908c-4.025 0-7.677-3.238-7.677-7.143v-4.095s0-.095.098-.095l7.658-3.334s.196 0 .196.096c.197.571.393 1.428.098 2.285-.294.762-.981 1.429-2.16 1.81v1.143c0 .095 0 .285.197.285h.294c.197 0 .491.096.688.19.392.191.883.477 1.178.763.294.285.589.762.785 1.143 0 0 .187.38.196.666v.572c0 .095.099.19.295.19h.982c.098 0 .294-.095.294-.286v-.952c0-.286-.196-.667-.294-.952a9.41 9.41 0 0 0-1.08-1.62 6.284 6.284 0 0 0-1.276-.952v-.19c.294-.19.49-.381.687-.667 0-.095.294-.095.392 0 .59.667 1.571 1.143 2.553 1.143s1.374-.19 1.865-.571h.295c.589 1.142 1.669 1.904 3.043 1.904 1.375 0 1.08-.095 1.57-.38.197 0 .295 0 .295.19v2.676c0 3.905-3.24 6.181-7.264 6.181M1.669 7.81a1.806 1.806 0 0 1 0-1.429c.196-.476.589-.762.982-.952.981-.381 1.963 0 2.356.952l3.829 9.238v.095l-3.142 1.334c-.098 0-.196 0-.294-.19L1.57 7.713l.099.096Zm10.603-6.381c.981 0 1.865.761 1.865 1.81v10.19L10.7 14.952c-.098 0-.197 0-.197-.095V3.238c0-.952.786-1.81 1.866-1.81M17.573 12c1.08 0 1.865.857 1.865 1.81v3.142c0 1.048-.883 1.905-1.865 1.81-.982 0-1.865-.857-1.865-1.81v-3.238c0-.952.785-1.81 1.865-1.81m5.4.096c-.688 0-1.375.19-1.964.571h-.295c-.589-1.142-1.668-1.904-3.043-1.904-1.374 0-1.08.095-1.57.38-.197 0-.295 0-.295-.19V3.333c0-1.81-1.473-3.238-3.338-3.238S9.13 1.524 9.13 3.333v8.19h-.098L6.774 6c-.687-1.619-2.65-2.476-4.418-1.81C1.571 4.571.884 5.143.59 6c-.294.762-.393 1.714 0 2.476l4.025 9.62v4.856c0 4.762 3.927 8.572 8.836 8.572h4.221c4.909 0 8.836-3.81 8.836-8.572v-7.619A3.342 3.342 0 0 0 23.169 12" mask="url(#f)"/></g><g transform="translate(303.569 85.386)"><mask id="h" fill="#fff"><use xlink:href="#g"/></mask><g mask="url(#h)"><path stroke="#FFF" stroke-width="2" d="M3.24 40c5.301 5.238 18.162 1.238 28.863-8.857C42.803 21.048 47.22 8.57 41.92 3.333c-5.301-5.238-18.162-1.238-28.863 8.857C2.357 22.286-2.062 34.762 3.24 40Z"/><path stroke="#FFF" stroke-width="2" d="M41.92 40c-5.301 5.238-18.162 1.238-28.863-8.857C2.357 21.048-2.062 8.57 3.24 3.333 8.54-1.905 21.402 2.095 32.103 12.19 42.803 22.286 47.22 34.762 41.92 40Z"/><path fill="#FFAFCC" fill-rule="nonzero" d="M23.463 14.571c-.098-.285-.392-.476-.785-.476s-.59.19-.785.476L20.223 18l-3.828.571c-.295 0-.59.286-.687.572 0 .286 0 .666.196.857l2.749 2.667-.687 3.714c0 .286 0 .667.294.762.295.19.59.19.884 0l3.338-1.714 3.337 1.714c.295.19.59.095.884 0 .295-.19.393-.476.295-.762l-.688-3.714L29.06 20c.196-.19.294-.571.196-.857-.099-.286-.393-.476-.688-.572L24.74 18l-1.67-3.429h.393Z"/></g></g><path stroke="#FFF" stroke-width="2" d="M217.471 71.29h-72.157V1.1"/></g></svg>