<svg xmlns="http://www.w3.org/2000/svg" xmlns:xlink="http://www.w3.org/1999/xlink" width="362" height="206"><defs><path id="a" d="M0 0h41.894v127.9H0z"/><path id="c" d="M0 0h31.666v42.8H0z"/><path id="e" d="M0 0h58.415v45.4H0z"/><path id="g" d="M0 0h37.862v6H0z"/><path id="i" d="M0 0h37.862v6H0z"/><path id="k" d="M0 0h37.862v21.8H0z"/><path id="m" d="M0 0h37.862v21.8H0z"/><path id="o" d="M0 0h37.862v6H0z"/><path id="q" d="M0 0h37.862v6H0z"/><path id="s" d="M0 0h37.862v6H0z"/></defs><g fill="none" fill-rule="evenodd" transform="translate(1)"><path stroke="#FFF" stroke-width="2" d="M.098 127.3h244.439m-42.838 75.8H.103l-.005-160h179.93m-85.226-.8v160.8M180.26 42.3v85m21.635 0v76.8"/><g transform="translate(190.095)"><mask id="b" fill="#fff"><use xlink:href="#a"/></mask><path fill="#FFF" fill-rule="nonzero" d="M25.864 60.1c.197 0 .295-.1.295-.3v-1.3c0-.2-.197-.3-.295-.3h-.492c-.196 0-.393-.2-.393-.3v-.5c0-.2.098-.4.295-.4h.59c.197 0 .295-.1.295-.3v-1.3c0-.2-.197-.3-.295-.3h-.688c-.197 0-.394-.2-.394-.4l-.197-3c0-.2.099-.5.394-.6 3.638-1.6 6.195-5.3 6.195-9.6s-2.95-8.5-6.982-9.9c-.197 0-.393-.3-.393-.6v-4.1c0-.2.196-.4.393-.4h.295c.197 0 .295-.1.295-.3v-1.3c0-.2-.098-.3-.295-.3h-2.262c-.196 0-.393-.2-.393-.4v-1.9c0-.2.197-.4.393-.4h.984c.196 0 .295-.2.295-.3v-1.3c0-.2-.099-.3-.295-.3h-.984c-.196 0-.393-.2-.393-.4V.6c0-.2-.197-.3-.295-.3h-1.279c-.196 0-.295.1-.295.3v19c0 .2-.196.4-.393.4h-.983c-.197 0-.295.1-.295.3v1.3c0 .2.098.3.295.3h.983c.197 0 .393.2.393.4v1.9c0 .2-.196.4-.393.4h-2.262c-.197 0-.295.1-.295.3v1.3c0 .2.098.3.295.3h.295c.197 0 .394.2.394.4V31c0 .3-.197.5-.394.6-4.032 1.4-6.982 5.3-6.982 9.9 0 4.6 2.655 8.1 6.294 9.7.196 0 .393.3.393.6l-.197 3c0 .2-.196.4-.393.4h-.787c-.196 0-.295.1-.295.3v1.3c0 .2.099.3.295.3h.59c.197 0 .394.2.394.4v.5c0 .2-.197.3-.394.3h-.59c-.196 0-.295.1-.295.3v1.3c0 .2.099.3.295.3h.492c.197 0 .393.2.393.4l-3.442 66.8c0 .3.296.6.59.6H27.93c.295 0 .59-.3.59-.6l-3.442-66.8c0-.2.197-.4.394-.4h.393v-.1Zm-6.786-10.8c-.196-.7-.393-1.9-.59-3.5 0-.2.099-.4.394-.4h4.13c.197 0 .393.2.393.4-.196 1.5-.393 2.7-.59 3.5 0 .1-.098.2-.295.3-.491 0-.983.1-1.573.1s-1.082 0-1.574-.1c-.098 0-.295-.1-.295-.3m-6.49-8c0-.5 0-1 .098-1.6 0-.2.197-.3.393-.3h2.852c.197 0 .394.2.394.4v3.3c0 .2-.197.4-.394.4H13.08c-.196 0-.295-.1-.393-.3-.098-.6-.197-1.2-.197-1.9m5.803 0v-1.5c0-.2.196-.4.393-.4h4.524c.196 0 .393.2.393.4v3.3c0 .2-.197.4-.393.4h-4.524c-.197 0-.393-.2-.393-.4v-1.8Zm2.655-8.5c.492 0 1.082 0 1.573.1.099 0 .295.1.295.3.197.8.394 2.1.59 3.8 0 .2-.098.4-.393.4h-4.229c-.196 0-.393-.2-.393-.4.197-1.6.393-2.9.59-3.8 0-.1.098-.3.295-.3.492 0 .983-.1 1.573-.1m4.13 15.5c.1-.7.198-1.5.394-2.5 0-.2.197-.3.394-.3h2.163c.197 0 .295.2.197.3-.295.5-.689 1-1.18 1.5-.492.5-.984.9-1.475 1.2-.197.1-.394 0-.295-.2m3.54-4.9h-2.852c-.197 0-.393-.2-.393-.4v-3.3c0-.2.196-.4.393-.4h2.852c.197 0 .295.1.393.3 0 .5.099 1 .099 1.6 0 .6 0 1.3-.197 1.9 0 .2-.197.3-.394.3m-.688-6h-2.262c-.196 0-.295-.1-.393-.3-.098-1.1-.197-2-.394-2.8 0-.2.197-.3.296-.2.491.3 1.081.7 1.475 1.2.491.5.983 1.2 1.376 1.8 0 .1 0 .3-.196.3m-7.573-11.1h1.279c.197 0 .393.2.393.4v3.8c0 .2-.196.4-.393.4h-1.18c-.197 0-.394-.2-.394-.4v-3.8c0-.2.197-.4.394-.4m-5.31 9c.491-.5.983-.9 1.474-1.2.197-.1.394 0 .295.2-.098.8-.295 1.7-.393 2.8 0 .2-.197.3-.393.3h-2.262c-.197 0-.295-.2-.197-.3.394-.7.787-1.3 1.377-1.8m-.885 10.1h2.163c.197 0 .295.1.394.3.098 1 .196 1.8.393 2.5 0 .2-.197.3-.295.2-.492-.3-1.082-.7-1.475-1.2-.492-.5-.885-1-1.18-1.5 0-.1 0-.3.197-.3m5.015 6.6c0-.2.197-.4.393-.3h2.656c.196 0 .393.1.393.3v2.5c.098.2 0 .4-.197.4h-2.95c-.197 0-.393-.2-.393-.4v-2.4l.098-.1Zm.098 4.9h3.246c.196 0 .393.2.393.4v.5c0 .2-.098.4-.295.4h-3.245c-.197 0-.394-.2-.394-.4v-.5c0-.2.197-.4.394-.4m6.589 69H15.833c-.197 0-.393-.2-.393-.4l3.343-65.1c0-.2.197-.4.394-.4h3.54c.197 0 .393.2.393.4l3.344 65.1c0 .2-.197.4-.393.4" mask="url(#b)"/></g><g transform="translate(122.436 60.5)"><mask id="d" fill="#fff"><use xlink:href="#c"/></mask><g mask="url(#d)"><g transform="translate(0 -.1)"><path fill="#00AB7F" fill-rule="nonzero" d="M17.8 41.9c4.229-5.4 13.866-18.4 13.866-25.8 0-7.4-7.08-16.1-15.833-16.1C7.081 0 0 7.2 0 16.1 0 25 9.638 36.5 13.866 41.9c.984 1.3 2.852 1.3 3.934 0Z"/><ellipse cx="15.833" cy="16.2" stroke="#FFF" stroke-width="2" rx="5.31" ry="5.4"/></g></g></g><g transform="translate(117.814 143)"><mask id="f" fill="#fff"><use xlink:href="#e"/></mask><path fill="#00AB7F" fill-rule="nonzero" d="m38.943 45.4-19.471-5.7V0l19.471 5.7v39.7Zm3.246-.1V5.5L55.07.3c1.574-.7 3.344.5 3.344 2.3v34.5c0 1-.59 1.9-1.573 2.3l-14.653 6v-.1ZM1.573 6.2l14.653-6V40L3.344 45.2C1.77 45.9 0 44.7 0 42.9V8.4c0-1 .59-1.9 1.573-2.3" mask="url(#f)"/></g><path stroke="#FFF" stroke-width="2" d="m44.224 186.32 7.897-11.22h14.063v-26.8H28.913v26.8h14.75v11.04c0 .31.384.43.561.18Z"/><path fill="#FFAFCC" d="M54.186 159.6c.394-.4.984-.7 1.574-.7.59 0 1.18.2 1.573.7.394.4.689 1 .689 1.6 0 .6-.295 1.2-.689 1.6-.393.4-.983.7-1.573.7s-1.18-.3-1.574-.7c-.393-.4-.688-.9-.688-1.6 0-.7.295-1.2.688-1.6m-16.62 0c.394-.4.984-.7 1.574-.7.59 0 1.18.2 1.574.7.393.4.688 1 .688 1.6 0 .6-.295 1.2-.688 1.6-.394.4-.984.7-1.574.7-.59 0-1.18-.3-1.573-.7-.394-.4-.689-.9-.689-1.6 0-.7.197-1.2.689-1.6m8.26 0c.394-.4.984-.7 1.574-.7.59 0 1.18.2 1.573.7.394.4.689 1 .689 1.6 0 .6-.197 1.2-.689 1.6-.393.4-.983.7-1.573.7s-1.18-.3-1.574-.7c-.393-.4-.688-.9-.688-1.6 0-.7.295-1.2.688-1.6"/><g transform="translate(202.88 173.7)"><mask id="h" fill="#fff"><use xlink:href="#g"/></mask><path fill="#FFF" d="M37.862 5.9c-1.476 0-2.656-.9-3.639-2.2-.59-.7-1.18-1.4-1.967-1.6-.983-.2-1.967 0-2.753.9-.394.4-.787.9-1.18 1.3-1.77 2-4.328 2-6.098 0-.393-.4-.786-.9-1.18-1.4-1.18-1.3-2.852-1.3-4.13 0-.492.5-.885 1-1.377 1.5-1.868 1.9-4.327 1.8-6.097-.2-.394-.4-.689-.9-1.082-1.3-1.18-1.3-2.852-1.3-4.13 0-.197.2-.492.5-.689.8C2.557 5 1.377 5.7 0 5.8V3.7c.885 0 1.573-.5 2.262-1.2C2.95 1.8 3.639.9 4.425.4 6-.5 7.572-.3 9.047 1c.492.4.886 1 1.377 1.5 1.377 1.6 3.049 1.6 4.524 0 .295-.4.688-.8.983-1.2 1.869-2 4.327-2 6.196 0 .393.5.787 1 1.278 1.4 1.18 1.2 2.754 1.2 3.934 0 .393-.4.787-.8 1.082-1.3 1.967-2.3 4.524-2.3 6.49-.1.295.4.689.8.984 1.2.59.7 1.278 1.1 2.163 1.1v2.1l-.196.2Z" mask="url(#h)"/></g><g transform="translate(202.88 165.2)"><mask id="j" fill="#fff"><use xlink:href="#i"/></mask><path fill="#FFF" d="M37.862 6c-1.476 0-2.656-.9-3.639-2.2-.59-.7-1.18-1.4-1.967-1.6-.983-.2-1.967 0-2.753.9-.394.4-.787.9-1.18 1.3-1.77 2-4.328 2-6.098 0-.393-.4-.786-.9-1.18-1.4-1.18-1.3-2.852-1.3-4.13 0-.492.5-.885 1-1.377 1.5-1.868 1.9-4.327 1.8-6.097-.2-.394-.4-.689-.9-1.082-1.3-1.18-1.3-2.852-1.3-4.13 0-.197.2-.492.5-.689.8-.983 1.3-2.163 2-3.54 2.1V3.8c.885 0 1.573-.5 2.262-1.2C2.95 1.9 3.639 1 4.425.5 6-.4 7.572-.2 9.047 1.1c.492.4.886 1 1.377 1.5 1.377 1.6 3.049 1.6 4.524 0 .295-.4.688-.8.983-1.2 1.869-2 4.327-2 6.196 0 .393.5.787 1 1.278 1.4 1.18 1.2 2.754 1.2 3.934 0 .393-.4.787-.8 1.082-1.3 1.967-2.3 4.524-2.3 6.49-.1.295.4.689.8.984 1.2.59.7 1.278 1.1 2.163 1.1v2.1l-.196.2Z" mask="url(#j)"/></g><g transform="translate(202.88 183.1)"><mask id="l" fill="#fff"><use xlink:href="#k"/></mask><g mask="url(#l)"><g transform="translate(0 -1)"><mask id="n" fill="#fff"><use xlink:href="#m"/></mask><g mask="url(#n)"><mask id="p" fill="#fff"><use xlink:href="#o"/></mask><path fill="#FFF" d="M37.862 6c-1.476 0-2.656-.9-3.639-2.2-.59-.7-1.18-1.4-1.967-1.6-.983-.2-1.967 0-2.753.9-.394.4-.787.9-1.18 1.3-1.77 2-4.328 2-6.098 0-.393-.4-.786-.9-1.18-1.4-1.18-1.3-2.852-1.3-4.13 0-.492.5-.885 1-1.377 1.5-1.868 1.9-4.327 1.8-6.097-.2-.394-.4-.689-.9-1.082-1.3-1.18-1.3-2.852-1.3-4.13 0-.197.2-.492.5-.689.8-.983 1.3-2.163 2-3.54 2.1V3.8c.885 0 1.573-.5 2.262-1.2C2.95 1.9 3.639 1 4.425.5 6-.4 7.572-.2 9.047 1.1c.492.4.886 1 1.377 1.5 1.377 1.6 3.049 1.6 4.524 0 .295-.4.688-.8.983-1.2 1.869-2 4.327-2 6.196 0 .393.5.787 1 1.278 1.4 1.18 1.2 2.754 1.2 3.934 0 .393-.4.787-.8 1.082-1.3 1.967-2.3 4.524-2.3 6.49-.1.295.4.689.8.984 1.2.59.7 1.278 1.1 2.163 1.1v2.1l-.196.2Z" mask="url(#p)"/><g transform="translate(0 8)"><mask id="r" fill="#fff"><use xlink:href="#q"/></mask><path fill="#FFF" d="M37.862 5.9c-1.476 0-2.656-.9-3.639-2.2-.59-.7-1.18-1.4-1.967-1.6-.983-.2-1.967 0-2.753.9-.394.4-.787.9-1.18 1.3-1.77 2-4.328 2-6.098 0-.393-.4-.786-.9-1.18-1.4-1.18-1.3-2.852-1.3-4.13 0-.492.5-.885 1-1.377 1.5-1.868 1.9-4.327 1.8-6.097-.2-.394-.4-.689-.9-1.082-1.3-1.18-1.3-2.852-1.3-4.13 0-.197.2-.492.5-.689.8C2.557 5 1.377 5.7 0 5.8V3.7c.885 0 1.573-.5 2.262-1.2C2.95 1.8 3.639.9 4.425.4 6-.5 7.572-.3 9.047 1c.492.4.886 1 1.377 1.5 1.377 1.6 3.049 1.6 4.524 0 .295-.4.688-.8.983-1.2 1.869-2 4.327-2 6.196 0 .393.5.787 1 1.278 1.4 1.18 1.2 2.754 1.2 3.934 0 .393-.4.787-.8 1.082-1.3 1.967-2.3 4.524-2.3 6.49-.1.295.4.689.8.984 1.2.59.7 1.278 1.1 2.163 1.1v2.1l-.196.2Z" mask="url(#r)"/></g><g transform="translate(0 15.9)"><mask id="t" fill="#fff"><use xlink:href="#s"/></mask><path fill="#FFF" d="M37.862 6c-1.476 0-2.656-.9-3.639-2.2-.59-.7-1.18-1.4-1.967-1.6-.983-.2-1.967 0-2.753.9-.394.4-.787.9-1.18 1.3-1.77 2-4.328 2-6.098 0-.393-.4-.786-.9-1.18-1.4-1.18-1.3-2.852-1.3-4.13 0-.492.5-.885 1-1.377 1.5-1.868 1.9-4.327 1.8-6.097-.2-.394-.4-.689-.9-1.082-1.3-1.18-1.3-2.852-1.3-4.13 0-.197.2-.492.5-.689.8-.983 1.3-2.163 2-3.54 2.1V3.8c.885 0 1.573-.5 2.262-1.2C2.95 1.9 3.639 1 4.425.5 6-.4 7.572-.2 9.047 1.1c.492.4.886 1 1.377 1.5 1.377 1.6 3.049 1.6 4.524 0 .295-.4.688-.8.983-1.2 1.869-2 4.327-2 6.196 0 .393.5.787 1 1.278 1.4 1.18 1.2 2.754 1.2 3.934 0 .393-.4.787-.8 1.082-1.3 1.967-2.3 4.524-2.3 6.49-.1.295.4.689.8.984 1.2.59.7 1.278 1.1 2.163 1.1v2.1l-.196.2Z" mask="url(#t)"/></g></g></g></g></g><path fill="#9285BE" fill-rule="nonzero" d="M33.633 81.6c-.393-.7-.59-1.5-.59-2.4 0-3 2.36-5.5 5.409-5.5 3.048 0 2.262.4 3.147 1.1 1.573-3 4.622-5.1 8.26-5.1 5.016 0 9.048 4 9.244 9 3.54 1.3 6 4.6 6 8.6 0 5-4.033 9.1-8.95 9.2 0 .1-21.242.1-21.242.1h-.295c-4.13 0-7.474-3.4-7.474-7.6 0-4.2 2.754-6.9 6.393-7.5l.098.1Z"/><path stroke="#FFF" stroke-width="2" d="M.098 79.5V53.7a8.984 8.984 0 0 1 4.327-1.1c5.016 0 9.048 4 9.245 9 3.54 1.3 5.998 4.6 5.998 8.6 0 5-4.032 9.1-8.949 9.2 0 .1-10.719.1-10.719.1h.098Zm81.034 22.3c.197-5 4.327-9 9.244-9 1.279 0 2.557.3 3.639.8v26.2H83.984c-4.917-.1-8.95-4.2-8.95-9.3 0-5.1 2.558-7.4 6-8.6l.098-.1Z"/><ellipse cx="301.093" cy="144.12" stroke="#FFF" stroke-width="2" rx="58.907" ry="59.9"/><path fill="#F6B4CC" fill-rule="nonzero" d="M300.267 105.18h1.77v7.1h-1.77v-7.1Zm-4.677.347 1.757-.217.84 7.049-1.758.216-.839-7.048Zm-4.518.924 1.718-.43 1.666 6.896-1.719.43-1.665-6.896Zm-4.41 1.447 1.657-.636 2.468 6.641-1.656.637-2.468-6.642Zm-4.088 2.169 1.568-.833 3.236 6.292-1.57.834-3.234-6.293Zm-3.903 2.396 1.459-1.02 3.954 5.852-1.458 1.02-3.955-5.852Zm-3.587 3.033 1.327-1.19 4.618 5.325-1.328 1.19-4.617-5.325Zm-3.247 3.316 1.178-1.344 5.213 4.723-1.177 1.344-5.214-4.723Zm-2.678 3.923 1.01-1.478 5.733 4.052-1.01 1.478-5.733-4.052Zm-2.365 3.976.828-1.59 6.17 3.322-.827 1.59-6.171-3.322Zm-1.753 4.299.634-1.68 6.519 2.545-.635 1.68-6.518-2.545Zm-1.29 4.486.432-1.746 6.771 1.73-.43 1.746-6.773-1.73Zm-.787 4.691.221-1.786 6.928.89-.222 1.786-6.927-.89Zm-.179 4.703.01-1.8 6.982.036-.01 1.8-6.982-.036Zm.177 2.955 6.936-.816.204 1.788-6.936.816-.204-1.788Zm.722 4.515 6.79-1.657.413 1.75-6.79 1.658-.413-1.751Zm1.29 4.588 6.544-2.475.618 1.687-6.545 2.475-.617-1.687Zm1.767 4.302 6.205-3.256.811 1.6-6.204 3.256-.812-1.6Zm2.155 4.142 5.775-3.99.994 1.488-5.775 3.99-.994-1.488Zm2.756 3.754 5.261-4.667 1.163 1.356-5.26 4.667-1.164-1.356Zm3.27 3.381 4.672-5.276 1.316 1.204-4.672 5.276-1.316-1.204Zm3.408 3.038 4.014-5.809 1.449 1.035-4.014 5.81-1.449-1.036Zm3.975 2.54 3.3-6.257 1.56.85-3.3 6.257-1.56-.85Zm4.055 2.037 2.537-6.615 1.648.654-2.536 6.615-1.65-.654Zm4.492 1.52 1.736-6.877 1.715.447-1.737 6.877-1.714-.447Zm4.51.928.91-7.038 1.756.234-.912 7.04-1.754-.236Zm4.519.467.073-7.1 1.77.02-.074 7.099-1.77-.019Zm3.877-7.204 1.76-.198.766 7.057-1.76.198-.766-7.057Zm3.737-.439 1.724-.411 1.593 6.912-1.723.411-1.594-6.912Zm3.708-1.074 1.662-.619 2.4 6.668-1.663.619-2.4-6.668Zm3.424-1.456 1.577-.817 3.17 6.326-1.576.817-3.17-6.326Zm3.332-1.874 1.468-1.003 3.894 5.893-1.469 1.004-3.893-5.894Zm3.019-2.283 1.34-1.176 4.562 5.375-1.34 1.176-4.562-5.375Zm2.79-2.566 1.192-1.331 5.165 4.778-1.192 1.332-5.164-4.779Zm2.438-2.841 1.025-1.468 5.692 4.113-1.026 1.467-5.691-4.112Zm2.095-3.302.844-1.581 6.137 3.387-.846 1.582-6.135-3.388Zm1.603-3.473.653-1.673 6.491 2.613-.652 1.674-6.492-2.614Zm1.282-3.469.448-1.74 6.754 1.8-.449 1.742-6.753-1.802Zm.874-3.806.24-1.784 6.917.964-.24 1.783-6.917-.963Zm.335-3.873.027-1.8 6.982.111-.028 1.8-6.98-.111Zm-.203-5.642 6.943-.742.187 1.79-6.945.742-.185-1.79Zm-.805-3.677 6.805-1.586.395 1.755-6.805 1.585-.395-1.754Zm-1.163-3.659 6.57-2.406.6 1.694-6.57 2.405-.6-1.693Zm-1.57-3.469 6.238-3.19.796 1.608-6.238 3.19-.795-1.608Zm-1.992-3.256 5.815-3.929.98 1.5-5.816 3.929-.979-1.5Zm-2.387-3.006 5.31-4.61 1.15 1.368-5.31 4.611-1.15-1.369Zm-2.654-2.645 4.726-5.226 1.303 1.218-4.726 5.227-1.303-1.219Zm-3.053-2.379 4.074-5.766 1.438 1.05-4.076 5.766-1.436-1.05Zm-3.204-2.009 3.363-6.222 1.552.867-3.363 6.222-1.552-.867Zm-3.424-1.395 2.604-6.588 1.643.672-2.605 6.587-1.642-.671Zm-3.692-1.139 1.807-6.858 1.71.466-1.807 6.858-1.71-.466Zm-3.723-.719.985-7.03 1.752.254-.983 7.03-1.754-.254Z"/></g></svg>