<svg xmlns="http://www.w3.org/2000/svg" width="391" height="452"><g fill="none" fill-rule="evenodd" transform="translate(1 1)"><path stroke="#FFF" stroke-width="2" d="M256.635.986v448.718M389.005 0v132.515H1.144V.986h388.458M92.938 272.623h163.697m-78.567 98.597h78.567m-77.572 0v-97.513m77.572 44.27H390m-1.094 0V450m.597-.887H256.138m30.93-29.974c9.845 10.057 34.111 2.366 54.101-17.057 20.09-19.424 28.244-43.285 18.399-53.342-9.846-10.057-34.112-2.366-54.102 17.058-20.09 19.423-28.244 43.284-18.399 53.34Z"/><path stroke="#FFF" stroke-width="2" d="M359.667 419.139c-9.846 10.057-34.112 2.366-54.102-17.057-20.089-19.424-28.244-43.285-18.398-53.342 9.846-10.057 34.112-2.366 54.102 17.058 20.089 19.423 28.244 43.284 18.398 53.34Z"/><path fill="#FFAFCC" fill-rule="nonzero" d="M324.86 370.432c-.3-.493-.797-.888-1.393-.888-.597 0-1.194.296-1.393.888l-3.182 6.507-7.061 1.085c-.597 0-1.094.493-1.293 1.084-.199.592 0 1.183.398 1.578l5.171 5.028-1.193 7.198c-.1.592.1 1.183.597 1.577.497.395 1.094.395 1.69.1l6.365-3.353 6.365 3.352c.497.296 1.194.197 1.69-.099.498-.394.697-.985.598-1.577l-1.194-7.198 5.172-5.028c.397-.395.596-1.085.397-1.578a1.618 1.618 0 0 0-1.292-1.084l-7.062-1.085-3.182-6.507h-.199Z"/><path stroke="#FFF" stroke-width="2" d="M228.789 303.681c0-.887-.597-1.676-1.393-2.07-.895-.395-1.79-.198-2.486.492l-3.083 3.057a18.069 18.069 0 0 1-12.73 5.226h-9.647c-2.486 0-4.475 1.972-4.475 4.437v6.704c0 2.465 1.99 4.437 4.475 4.437v8.972c0 1.282.995 2.268 2.288 2.268h4.475c1.293 0 2.288-.986 2.288-2.268v-8.972h.596c4.774 0 9.349 1.873 12.73 5.226l3.083 3.056c.696.69 1.591.79 2.486.493.895-.394 1.393-1.183 1.393-2.07v-10.353c1.293-.592 2.287-2.268 2.287-4.24 0-1.972-.895-3.648-2.287-4.24v-10.352.197Z"/><path stroke="#FFF" stroke-width="2" d="M231.076 318.372c0 2.564-2.088 4.733-4.774 4.733-2.685 0-4.773-2.07-4.773-4.733 0-2.662 2.088-4.733 4.773-4.733 2.686 0 4.774 2.07 4.774 4.733Z"/><path fill="#00AB7F" fill-rule="nonzero" d="m145.448 105.598-33.913-9.662v-67.54l33.913 9.663v67.54Zm5.57-.197V37.664l22.476-8.972c2.784-1.085 5.867.887 5.867 3.944V91.3c0 1.677-1.094 3.254-2.685 3.944l-25.659 10.156Zm-70.91-66.553 25.659-10.156v67.737l-22.476 8.873c-2.785 1.085-5.868-.887-5.868-3.944V42.693c0-1.676 1.094-3.254 2.685-3.944"/><path stroke="#FFF" stroke-width="2" d="M329.633 83.71v9.958c0 .789-.497 1.38-1.094 1.775h-.796c-.497 0-.895-.198-1.293-.592l-11.437-11.24h-24.166V38.55h64.146v45.06h-25.36v.098Z"/><path fill="#FFAFCC" d="M311.334 57.581c-.796-.789-1.691-1.085-2.785-1.085s-1.989.395-2.685 1.085c-.696.592-1.094 1.676-1.094 2.662s.497 1.972 1.094 2.564c.795.789 1.69 1.183 2.685 1.183.995 0 1.99-.493 2.785-1.183.696-.592 1.094-1.578 1.094-2.564s-.498-2.07-1.094-2.662m28.542 0c-.696-.789-1.69-1.085-2.685-1.085-.994 0-1.989.395-2.685 1.085-.696.592-1.094 1.676-1.094 2.662s.497 1.972 1.094 2.564c.696.789 1.69 1.183 2.685 1.183.995 0 1.99-.493 2.685-1.183.796-.592 1.094-1.578 1.094-2.564s-.398-2.07-1.094-2.662m-14.221 0c-.696-.789-1.691-1.085-2.685-1.085-.995 0-1.99.395-2.686 1.085-.795.592-1.094 1.676-1.094 2.662s.398 1.972 1.094 2.564c.696.789 1.691 1.183 2.686 1.183.994 0 1.989-.493 2.685-1.183.696-.592 1.094-1.578 1.094-2.564s-.498-2.07-1.094-2.662"/><ellipse cx="89.308" cy="361.163" stroke="#FFF" stroke-width="2" rx="89.308" ry="88.541"/><path fill="#F6B4CC" fill-rule="nonzero" d="M87.925 303.188h2.685v10.451h-2.685v-10.451Zm-6.94.612 2.665-.32 1.267 10.376-2.665.32-1.267-10.376Zm-6.864 1.456 2.608-.635 2.514 10.15-2.607.634-2.515-10.15Zm-6.544 2.152 2.513-.94 3.725 9.776-2.511.942-3.727-9.778Zm-6.398 3.071 2.38-1.233 4.883 9.261-2.38 1.234-4.883-9.262Zm-5.898 3.72 2.213-1.51 5.971 8.615-2.213 1.508-5.97-8.614Zm-5.412 4.298 2.014-1.76 6.972 7.839-2.014 1.76-6.972-7.839Zm-4.864 4.99 1.786-1.988 7.872 6.952-1.786 1.987-7.872-6.952Zm-4.246 5.557 1.533-2.186 8.656 5.966-1.531 2.184-8.658-5.964Zm-3.445 6.015 1.256-2.353 9.317 4.89-1.256 2.353-9.317-4.89Zm-2.822 6.466.962-2.485 9.841 3.745-.961 2.485-9.842-3.745Zm-1.937 6.658.654-2.582 10.224 2.546-.654 2.583-10.224-2.547Zm-1.145 6.801.336-2.64 10.46 1.31-.338 2.64-10.458-1.31Zm-.287 6.986.014-2.662 10.542.055-.014 2.662-10.542-.055Zm.292 4.294 10.472-1.202.308 2.644-10.472 1.202-.308-2.644Zm1.09 6.8 10.251-2.441.627 2.59-10.25 2.438-.627-2.588Zm1.814 6.73 9.88-3.643.936 2.495-9.88 3.644-.936-2.496Zm2.767 6.434 9.368-4.794 1.231 2.367-9.367 4.792-1.232-2.365Zm3.396 6.021 8.719-5.874 1.508 2.202-8.718 5.874-1.51-2.202Zm4.138 5.607 7.944-6.87 1.764 2.005-7.943 6.871-1.765-2.006Zm4.862 4.986 7.054-7.767 1.995 1.782-7.054 7.766-1.995-1.781Zm5.38 4.448 6.062-8.55 2.198 1.531-6.063 8.55-2.196-1.53Zm5.915 3.813 4.982-9.21 2.366 1.257-4.982 9.211-2.366-1.258Zm6.311 3.09 3.829-9.738 2.502.966-3.829 9.739-2.502-.968Zm6.548 2.244 2.622-10.122 2.6.662-2.621 10.123-2.6-.663Zm6.845 1.466 1.376-10.362 2.662.348-1.375 10.363-2.663-.349Zm6.954.595.11-10.451 2.686.028-.11 10.452-2.686-.029Zm5.89-10.517 2.67-.293 1.156 10.388-2.669.292-1.156-10.387Zm5.708-.816 2.614-.607 2.406 10.175-2.613.607-2.407-10.175Zm5.502-1.564 2.522-.915 3.622 9.815-2.521.915-3.623-9.815Zm5.25-2.144 2.394-1.209 4.785 9.313-2.393 1.208-4.785-9.312Zm5.124-2.684 2.228-1.485 5.88 8.676-2.229 1.484-5.88-8.675Zm4.618-3.327 2.032-1.739 6.889 7.912-2.033 1.739-6.888-7.912Zm4.152-3.951 1.807-1.97 7.797 7.035-1.807 1.969-7.797-7.034Zm3.683-4.243 1.555-2.17 8.593 6.055-1.554 2.169-8.594-6.054Zm3.175-4.76 1.282-2.34 9.264 4.987-1.28 2.339-9.266-4.986Zm2.575-5.147.989-2.475 9.8 3.847-.988 2.475-9.8-3.847Zm1.938-5.326.682-2.575 10.197 2.653-.682 2.574-10.197-2.652Zm1.29-5.538.364-2.637 10.445 1.418-.364 2.637-10.445-1.418Zm.571-5.607.042-2.662 10.54.165-.042 2.662-10.54-.165Zm-.414-8.346 10.484-1.092.28 2.648-10.484 1.092-.28-2.648Zm-1.055-5.598 10.277-2.332.598 2.595-10.275 2.333-.6-2.596Zm-1.829-5.334 9.919-3.54.91 2.505-9.92 3.54-.909-2.505Zm-2.476-5.253 9.418-4.696 1.206 2.378-9.418 4.696-1.206-2.378Zm-3.031-4.815 8.78-5.783 1.486 2.217-8.78 5.784-1.486-2.218Zm-3.536-4.317 8.016-6.788 1.744 2.025-8.015 6.787-1.745-2.024Zm-4.053-4.065 7.135-7.694 1.977 1.802-7.135 7.693-1.977-1.801Zm-4.588-3.38 6.151-8.489 2.181 1.554-6.152 8.488-2.18-1.553Zm-4.95-2.887 5.08-9.159 2.352 1.282-5.079 9.16-2.353-1.283Zm-5.214-2.277 3.932-9.697 2.492.993-3.933 9.697-2.491-.993Zm-5.497-1.717 2.73-10.097 2.593.69-2.73 10.095-2.593-.688Zm-5.684-.918 1.485-10.347 2.659.375-1.486 10.347-2.658-.375Z"/><path fill="#00AB7F" fill-rule="nonzero" d="M326.749 264.538c8.354-10.353 27.25-35.298 27.25-49.398 0-14.1-13.924-30.86-31.129-30.86-17.205 0-31.128 13.803-31.128 30.86 0 17.058 18.995 39.045 27.25 49.398a4.89 4.89 0 0 0 7.657 0h.1Z"/><ellipse cx="322.87" cy="215.14" stroke="#FFF" stroke-width="2" rx="10.343" ry="10.254"/><path fill="#FFF" fill-rule="nonzero" d="M253.98 372.098h-4.217l-71.555 70.941v4.18l75.772-75.121Zm-12.919 0h-4.227l-58.626 58.123v4.18l62.853-62.303Zm-12.899 0h-4.227l-45.727 45.286v4.18l49.954-49.466Zm-38.796 0h-4.217l-6.941 6.872v4.18l11.158-11.052Zm12.919 0h-4.217l-19.86 19.68v4.19l24.077-23.87Zm12.919 0h-4.217l-32.78 32.498v4.18l36.997-36.678Zm41.302 61.564v-4.18l-20.437 20.232h4.226l16.21-16.052Zm0 12.808v-4.18l-7.509 7.424h4.227l3.282-3.244Zm0-25.615v-4.181l-33.366 33.04h4.227l29.139-28.86Zm0-12.838v-4.18l-46.235 45.877h4.217l42.018-41.697Zm0-12.818v-4.19l-59.154 58.705h4.217l54.937-54.515Zm-67.896 54.515 67.896-67.303v-4.18l-72.113 71.483h4.217Z"/></g></svg>