<?xml version="1.0" encoding="UTF-8" standalone="no"?>
<svg
   width="270px"
   height="150px"
   viewBox="0 0 270 150"
   version="1.1"
   id="svg826"
   sodipodi:docname="offline-event.svg"
   xml:space="preserve"
   inkscape:version="1.2.2 (b0a8486541, 2022-12-01)"
   xmlns:inkscape="http://www.inkscape.org/namespaces/inkscape"
   xmlns:sodipodi="http://sodipodi.sourceforge.net/DTD/sodipodi-0.dtd"
   xmlns="http://www.w3.org/2000/svg"
   xmlns:svg="http://www.w3.org/2000/svg"><defs
     id="defs830" /><sodipodi:namedview
     id="namedview828"
     pagecolor="#ffffff"
     bordercolor="#000000"
     borderopacity="0.25"
     inkscape:showpageshadow="2"
     inkscape:pageopacity="0.0"
     inkscape:pagecheckerboard="0"
     inkscape:deskcolor="#d1d1d1"
     showgrid="false"
     inkscape:zoom="1.5733333"
     inkscape:cx="-17.478814"
     inkscape:cy="88.029661"
     inkscape:window-width="1920"
     inkscape:window-height="1041"
     inkscape:window-x="0"
     inkscape:window-y="0"
     inkscape:window-maximized="1"
     inkscape:current-layer="svg826" /><rect
     fill="#253276"
     x="0"
     y="0"
     width="270"
     height="150"
     id="rect822" /><g
     style="fill:none"
     id="g972"
     transform="matrix(1.8218438,0,0,1.8218438,75.868361,16.017843)"><path
       d="m 20.7031,25.6562 h -3.3593 c -0.9277,0 -1.6797,0.7521 -1.6797,1.6797 v 3.3594 c 0,0.9277 0.752,1.6797 1.6797,1.6797 h 3.3593 c 0.9277,0 1.6797,-0.752 1.6797,-1.6797 v -3.3594 c 0,-0.9276 -0.752,-1.6797 -1.6797,-1.6797 z"
       fill="#ffffff"
       id="path936" /><path
       d="m 34.1406,25.6562 h -3.3594 c -0.9276,0 -1.6796,0.7521 -1.6796,1.6797 v 3.3594 c 0,0.9277 0.752,1.6797 1.6796,1.6797 h 3.3594 c 0.9277,0 1.6797,-0.752 1.6797,-1.6797 v -3.3594 c 0,-0.9276 -0.752,-1.6797 -1.6797,-1.6797 z"
       fill="#ffffff"
       id="path938" /><path
       d="m 47.5781,25.6562 h -3.3593 c -0.9277,0 -1.6797,0.7521 -1.6797,1.6797 v 3.3594 c 0,0.9277 0.752,1.6797 1.6797,1.6797 h 3.3593 c 0.9277,0 1.6797,-0.752 1.6797,-1.6797 v -3.3594 c 0,-0.9276 -0.752,-1.6797 -1.6797,-1.6797 z"
       fill="#ffffff"
       id="path940" /><path
       d="m 20.7031,35.7344 h -3.3593 c -0.9277,0 -1.6797,0.752 -1.6797,1.6797 v 3.3593 c 0,0.9277 0.752,1.6797 1.6797,1.6797 h 3.3593 c 0.9277,0 1.6797,-0.752 1.6797,-1.6797 v -3.3593 c 0,-0.9277 -0.752,-1.6797 -1.6797,-1.6797 z"
       fill="#ffffff"
       id="path942" /><path
       d="m 34.1406,35.7344 h -3.3594 c -0.9276,0 -1.6796,0.752 -1.6796,1.6797 v 3.3593 c 0,0.9277 0.752,1.6797 1.6796,1.6797 h 3.3594 c 0.9277,0 1.6797,-0.752 1.6797,-1.6797 v -3.3593 c 0,-0.9277 -0.752,-1.6797 -1.6797,-1.6797 z"
       fill="#ffffff"
       id="path944" /><path
       d="m 47.5781,35.7344 h -3.3593 c -0.9277,0 -1.6797,0.752 -1.6797,1.6797 v 3.3593 c 0,0.9277 0.752,1.6797 1.6797,1.6797 h 3.3593 c 0.9277,0 1.6797,-0.752 1.6797,-1.6797 v -3.3593 c 0,-0.9277 -0.752,-1.6797 -1.6797,-1.6797 z"
       fill="#ffffff"
       id="path946" /><path
       d="m 20.7031,45.8125 h -3.3593 c -0.9277,0 -1.6797,0.752 -1.6797,1.6797 v 3.3594 c 0,0.9276 0.752,1.6796 1.6797,1.6796 h 3.3593 c 0.9277,0 1.6797,-0.752 1.6797,-1.6796 v -3.3594 c 0,-0.9277 -0.752,-1.6797 -1.6797,-1.6797 z"
       fill="#ffffff"
       id="path948" /><path
       d="m 34.1406,45.8125 h -3.3594 c -0.9276,0 -1.6796,0.752 -1.6796,1.6797 v 3.3594 c 0,0.9276 0.752,1.6796 1.6796,1.6796 h 3.3594 c 0.9277,0 1.6797,-0.752 1.6797,-1.6796 v -3.3594 c 0,-0.9277 -0.752,-1.6797 -1.6797,-1.6797 z"
       fill="#ffffff"
       id="path950" /><path
       d="m 47.5781,45.8125 h -3.3593 c -0.9277,0 -1.6797,0.752 -1.6797,1.6797 v 3.3594 c 0,0.9276 0.752,1.6796 1.6797,1.6796 h 3.3593 c 0.9277,0 1.6797,-0.752 1.6797,-1.6796 v -3.3594 c 0,-0.9277 -0.752,-1.6797 -1.6797,-1.6797 z"
       fill="#ffffff"
       id="path952" /><path
       d="m 47.5742,5.16016 c 0.1383,0 0.2143,0.04437 0.2549,0.08496 0.0406,0.04058 0.085,0.11655 0.085,0.25488 v 3.01953 h 3.0195 c 2.9992,0 5.3789,2.37967 5.3789,5.37887 v 40.3125 c 0,2.9993 -2.3797,5.3789 -5.3789,5.3789 H 13.9805 c -2.9993,0 -5.37894,-2.3796 -5.37894,-5.3789 V 13.8984 c 0,-2.9992 2.37964,-5.37887 5.37894,-5.37887 H 17 V 5.5 c 0,-0.13833 0.0444,-0.2143 0.085,-0.25488 0.0405,-0.04059 0.1165,-0.08496 0.2548,-0.08496 0.1384,0 0.2143,0.04437 0.2549,0.08496 0.0406,0.04058 0.085,0.11655 0.085,0.25488 v 3.01953 h 9.3984 V 5.5 c 0,-0.13833 0.0444,-0.2143 0.085,-0.25488 0.0406,-0.04059 0.1165,-0.08496 0.2549,-0.08496 0.1383,0 0.2143,0.04437 0.2549,0.08496 0.0405,0.04058 0.0849,0.11655 0.0849,0.25488 v 3.01953 h 9.3984 V 5.5 c 0,-0.13833 0.0444,-0.2143 0.085,-0.25488 0.0406,-0.04059 0.1166,-0.08496 0.2549,-0.08496 0.1383,0 0.2143,0.04437 0.2549,0.08496 0.0406,0.04058 0.0849,0.11655 0.0849,0.25488 v 3.01953 h 9.3985 V 5.5 c 0,-0.13833 0.0444,-0.2143 0.0849,-0.25488 0.0406,-0.04059 0.1166,-0.08496 0.2549,-0.08496 z M 9.28125,54.2109 c 0,2.6277 2.07155,4.6993 4.69925,4.6993 h 36.9531 c 2.6277,0 4.6992,-2.0716 4.6992,-4.6993 V 19.2773 H 9.28125 Z M 13.9805,9.19922 c -2.6277,0 -4.69925,2.07148 -4.69925,4.69918 v 4.6993 H 55.6328 v -4.6993 c 0,-2.6277 -2.0715,-4.69918 -4.6992,-4.69918 h -3.0195 v 3.58008 l 0.2763,0.1387 c 0.242,0.121 0.3525,0.2012 0.4229,0.3017 0.0662,0.0948 0.1406,0.2735 0.1406,0.6787 0,0.6477 -0.532,1.1797 -1.1797,1.1797 -0.6477,0 -1.1797,-0.532 -1.1797,-1.1797 0,-0.4189 0.2465,-0.8219 0.5635,-0.9804 l 0.2764,-0.1387 V 9.19922 h -9.3985 v 3.58008 l 0.2764,0.1387 c 0.242,0.121 0.3525,0.2012 0.4229,0.3017 0.0662,0.0948 0.1406,0.2735 0.1406,0.6787 0,0.6477 -0.532,1.1797 -1.1797,1.1797 -0.6477,0 -1.1797,-0.532 -1.1797,-1.1797 0,-0.4189 0.2465,-0.8219 0.5635,-0.9804 l 0.2763,-0.1387 V 9.19922 h -9.3984 v 3.58008 l 0.2764,0.1387 c 0.242,0.121 0.3525,0.2012 0.4228,0.3017 0.0663,0.0948 0.1407,0.2735 0.1407,0.6787 0,0.6477 -0.532,1.1797 -1.1797,1.1797 -0.6477,0 -1.1797,-0.532 -1.1797,-1.1797 0,-0.4189 0.2464,-0.8219 0.5635,-0.9804 l 0.2763,-0.1387 V 9.19922 h -9.3984 v 3.58008 l 0.2764,0.1387 c 0.242,0.121 0.3525,0.2012 0.4228,0.3017 0.0662,0.0948 0.1406,0.2735 0.1406,0.6787 0,0.6477 -0.532,1.1797 -1.1797,1.1797 -0.6476,0 -1.1796,-0.532 -1.1796,-1.1797 0,-0.4189 0.2464,-0.8219 0.5634,-0.9804 L 17,12.7793 V 9.19922 Z"
       fill="#ffffff"
       stroke="#ffffff"
       id="path954" /></g></svg>
