<?xml version="1.0" encoding="utf-8"?>
<!-- Generator: Adobe Illustrator 28.0.0, SVG Export Plug-In . SVG Version: 6.00 Build 0)  -->
<svg version="1.1" xmlns="http://www.w3.org/2000/svg" xmlns:xlink="http://www.w3.org/1999/xlink" x="0px" y="0px"
	 viewBox="0 0 1080 221.31" style="enable-background:new 0 0 1080 221.31; width: 122px; height: 25px;" xml:space="preserve">
<style type="text/css">
	.st0{fill:none;stroke:#000000;stroke-width:14;stroke-linecap:round;stroke-linejoin:round;stroke-miterlimit:10;}
	.st1{fill-rule:evenodd;clip-rule:evenodd;}
</style>
<g id="Layer_1">
	<path class="st0" d="M4.93,202.36c18.23-55.7,67.64-141.72,78-155.15c31.08-40.28,20.34,15.73,17.82,76.72
		c-2.18,52.7,1.46,106.58,13.26,88.73c13.92-21.06,39.84-110.66,47.07-122.19s11.94,1,13.93,22.22
		c1.85,19.75,6.96,78.58,14.59,65.98c8.93-14.75,27.41-53.84,37.8-65.98c7.61-8.9,15.25,5.97,24.2,35.81
		c8.95,29.84,12.6,43.76,12.6,43.76"/>
</g>
<g id="Layer_4">
	<path class="st0" d="M289.73,140.21c0,0,15.52-1.01,34.48-24.54s10.86-34.8,5.68-38.91c-4.16-3.3-14.3,0.46-21.59,12.73
		c-6.54,11-20.84,48.66-20.89,60.67c-0.07,17.57,15.42,42.79,34.5,45.44c26.17,3.63,34.8-14.27,53.69-44.11
		c18.9-29.84,28.35-55.04,29.59-51.39c1.24,3.65-3.7,89.11,4.56,82.91c10.61-7.98,43.09-71.96,62.99-80.91
		c19.89-8.95,15.15,31.78,14.27,43.09c-1.51,19.49-4.4,42.46-0.61,42.78c3.9,0.33,32.59-62.97,54.6-72.97
		c13.97-6.34,11.21,54.3,30.91,86.96"/>
</g>
<g id="Layer_3">
	<path class="st1" d="M385.78,11.72c-1.76-10.9,5.43-12.17,12.48-11.61c5.2,0.41,7.01,6.07,6.93,11.06
		c-0.07,4.35-1.58,8.26-9.26,7.23C393.14,17.68,387.09,19.88,385.78,11.72z"/>
</g>
<g id="Layer_2">
	<path class="st1" d="M1079.9,105.85l0.1,83.24l-14.29,0.02l-31.72-44.77c-5.34-7.34-8.99-14.83-8.99-14.83h-0.56
		c0,0,0.85,8.2,0.85,19.36l0.05,40.29l-14.99,0.02l-0.1-83.24l14.72-0.02l31.45,45.18c4.92,6.91,8.57,14.26,8.57,14.26h0.56
		c0,0-0.57-8.34-0.59-18.8l-0.05-40.7L1079.9,105.85z"/>

		<rect x="956.53" y="105.99" transform="matrix(1 -1.212179e-03 1.212179e-03 1 -0.1782 1.1687)" class="st1" width="14.99" height="83.24"/>
	<polygon class="st1" points="898.88,106.07 898.96,176.16 934.29,176.12 934.3,189.27 883.99,189.33 883.89,106.08 	"/>
	<polygon class="st1" points="763.91,106.22 763.92,119.37 726.5,119.42 726.52,141.33 759.6,141.28 759.62,154.15 726.54,154.18
		726.57,176.37 763.99,176.33 764.01,189.47 711.59,189.54 711.49,106.29 	"/>
	<path class="st1" d="M851.72,180.61l-4.22-16.11c-2.26-8.48-6.46-11.87-14.17-12.98v-0.29c10.51-0.86,18.77-7.79,18.75-20.8
		c-0.03-16.68-10.13-24.3-28.9-24.27l-29.85,0.03l0.1,83.24l14.99-0.02l-0.04-32.36l10.1-0.02c7.42-0.01,11.77,1.68,14.02,10.59
		l3.24,13.7c0.7,3.39,1.68,5.93,3.93,8.05l16.39-0.03C853.83,186.67,852.56,183.85,851.72,180.61z M822.53,144.59l-14.16,0.02
		l-0.03-25.72l14.16-0.02c9.52-0.01,14.02,4.65,14.03,12.85C836.53,140.62,831.91,144.59,822.53,144.59z"/>
	<path class="st1" d="M664.59,147.05v-0.42c8.83-1.86,14.85-8.36,14.84-19.25c-0.02-13.71-8.99-21.04-25.68-21.02l-29.29,0.03
		l0.1,83.24l29.15-0.04c20.18-0.02,29.14-9.08,29.12-23.21C682.82,155.08,675.38,148.31,664.59,147.05z M639.47,119.1l11.35-0.02
		c8.69-0.01,13.6,3.23,13.62,11.57c0.01,8.06-5.04,11.6-12.89,11.6l-12.06,0.02L639.47,119.1z M653.84,176.89l-14.3,0.02
		l-0.03-23.04l14.3-0.02c9.82-0.01,14.02,4.23,14.03,10.87C667.85,173.47,662.67,176.88,653.84,176.89z"/>
</g>
</svg>
