<?xml version="1.0" encoding="utf-8"?>
<!-- Generator: Adobe Illustrator 26.2.0, SVG Export Plug-In . SVG Version: 6.00 Build 0)  -->
<svg height="40" width="280.25" version="1.1" id="Ebene_1" xmlns="http://www.w3.org/2000/svg" xmlns:xlink="http://www.w3.org/1999/xlink" x="0px" y="0px"
	 viewBox="0 0 279.7 40" style="enable-background:new 0 0 279.7 40;" xml:space="preserve">
<g>
	<g>
		<path d="M17,21.6v-1.7c0-0.1,0.1-0.2,0.2-0.2h5.8c0.1,0,0.2,0.1,0.2,0.2c-0.1,4.5-2.8,7.2-6.7,7.2c-4,0-7-2.9-7-7.1s3-7.1,7-7.1
			c2.3,0,4.3,1,5.5,2.6c0.1,0.1,0.1,0.2,0,0.3L20.6,17c-0.1,0.1-0.2,0.1-0.3-0.1c-0.8-1.1-2.1-1.7-3.6-1.7c-2.7,0-4.6,2-4.6,4.7
			s1.8,4.7,4.5,4.7c2.1,0,3.5-1,3.9-2.7c0-0.1,0-0.1-0.1-0.1h-3.2C17.1,21.9,17,21.8,17,21.6z"/>
		<path d="M25.7,13.3h7c0.1,0,0.2,0.1,0.2,0.2v1.8c0,0.1-0.1,0.2-0.2,0.2H28c-0.1,0-0.1,0-0.1,0.1v3.1c0,0.1,0,0.1,0.1,0.1h4.7
			c0.1,0,0.2,0.1,0.2,0.2v1.7c0,0.1-0.1,0.2-0.2,0.2H28c-0.1,0-0.1,0-0.1,0.1v3.2c0,0.1,0,0.1,0.1,0.1h4.7c0.1,0,0.2,0.1,0.2,0.2
			v1.8c0,0.1-0.1,0.2-0.2,0.2h-7c-0.1,0-0.2-0.1-0.2-0.2v-13C25.5,13.4,25.6,13.3,25.7,13.3z"/>
		<path d="M35.7,26.5v-13c0-0.1,0.1-0.2,0.2-0.2h2.3c0.1,0,0.2,0.1,0.3,0.2l3.1,5.3c0.1,0.2,0.1,0.2,0.2,0l3.1-5.3
			c0.1-0.1,0.2-0.2,0.3-0.2h2.3c0.1,0,0.2,0.1,0.2,0.2v13c0,0.1-0.1,0.2-0.2,0.2h-1.9c-0.1,0-0.2-0.1-0.2-0.2v-9.1
			c0-0.1-0.1-0.2-0.2,0L42,22.6c-0.2,0.3-0.4,0.3-0.6,0l-3.2-5.1c-0.1-0.1-0.2-0.1-0.2,0v9.1c0,0.1-0.1,0.2-0.2,0.2h-1.9
			C35.8,26.7,35.7,26.6,35.7,26.5z"/>
		<path d="M51.2,13.3h7c0.1,0,0.2,0.1,0.2,0.2v1.8c0,0.1-0.1,0.2-0.2,0.2h-4.7c-0.1,0-0.1,0-0.1,0.1v3.1c0,0.1,0,0.1,0.1,0.1h4.7
			c0.1,0,0.2,0.1,0.2,0.2v1.7c0,0.1-0.1,0.2-0.2,0.2h-4.7c-0.1,0-0.1,0-0.1,0.1v3.2c0,0.1,0,0.1,0.1,0.1h4.7c0.1,0,0.2,0.1,0.2,0.2
			v1.8c0,0.1-0.1,0.2-0.2,0.2h-7c-0.1,0-0.2-0.1-0.2-0.2v-13C51,13.4,51,13.3,51.2,13.3z"/>
		<path d="M63.5,13.5v13c0,0.1-0.1,0.2-0.2,0.2h-1.9c-0.1,0-0.2-0.1-0.2-0.2v-13c0-0.1,0.1-0.2,0.2-0.2h1.9
			C63.4,13.3,63.5,13.4,63.5,13.5z"/>
		<path d="M74.6,22.3v-8.8c0-0.1,0.1-0.2,0.2-0.2h1.9c0.1,0,0.2,0.1,0.2,0.2v13c0,0.1-0.1,0.2-0.2,0.2h-2.1c-0.2,0-0.3-0.1-0.4-0.2
			l-5-8.9c-0.1-0.1-0.1-0.1-0.1,0v8.8c0,0.1-0.1,0.2-0.2,0.2h-1.9c-0.1,0-0.2-0.1-0.2-0.2v-13c0-0.1,0.1-0.2,0.2-0.2H69
			c0.2,0,0.3,0.1,0.4,0.2l5,8.9C74.5,22.5,74.6,22.5,74.6,22.3z"/>
		<path d="M79.3,24.1c-0.1-0.1,0-0.2,0.1-0.3l1.8-0.7c0.1-0.1,0.2,0,0.3,0.1c0.3,1.1,1.2,1.6,2.3,1.6c1.4,0,2.1-0.7,2.1-1.8
			c0-1.1-0.7-1.7-1.9-1.9l-1-0.2c-2.1-0.4-3.5-1.8-3.5-4c0-2.1,1.7-4,4.3-4c2,0,3.5,1.1,4.2,2.7c0.1,0.1,0,0.2-0.1,0.3l-1.8,0.7
			c-0.1,0.1-0.2,0-0.3-0.1c-0.4-0.8-1.1-1.4-2-1.4c-1.2,0-1.9,0.7-1.9,1.7c0,0.8,0.6,1.5,1.6,1.7l1,0.2c1.9,0.4,3.8,1.6,3.8,4.1
			c0,2.3-1.7,4.3-4.6,4.3C81.7,27.1,80,25.9,79.3,24.1z"/>
		<path d="M97.2,13.6l3.7,12.9c0,0.2,0,0.2-0.2,0.2h-2c-0.1,0-0.2-0.1-0.2-0.2l-0.7-2.4c0-0.1-0.1-0.2-0.2-0.2h-4.9
			c-0.1,0-0.2,0-0.2,0.2l-0.7,2.4c0,0.1-0.1,0.2-0.2,0.2h-2c-0.2,0-0.2-0.1-0.2-0.2l3.7-12.9c0.1-0.2,0.2-0.3,0.4-0.3h3.3
			C97,13.3,97.1,13.3,97.2,13.6z M93.3,21.8H97c0.1,0,0.1,0,0.1-0.1l-1.7-6c0-0.1-0.1-0.1-0.1-0.1h-0.2c-0.1,0-0.1,0-0.1,0.1l-1.7,6
			C93.2,21.7,93.3,21.8,93.3,21.8z"/>
		<path d="M102.9,26.5v-13c0-0.1,0.1-0.2,0.2-0.2h2.3c0.1,0,0.2,0.1,0.3,0.2l3.1,5.3c0.1,0.2,0.1,0.2,0.2,0l3.1-5.3
			c0.1-0.1,0.2-0.2,0.3-0.2h2.3c0.1,0,0.2,0.1,0.2,0.2v13c0,0.1-0.1,0.2-0.2,0.2h-1.9c-0.1,0-0.2-0.1-0.2-0.2v-9.1
			c0-0.1-0.1-0.2-0.2,0l-3.2,5.1c-0.2,0.3-0.4,0.3-0.6,0l-3.2-5.1c-0.1-0.1-0.2-0.1-0.2,0v9.1c0,0.1-0.1,0.2-0.2,0.2h-1.9
			C103,26.7,102.9,26.6,102.9,26.5z"/>
		<path d="M133,20c0,4.1-2.7,6.7-6.5,6.7h-4.1c-0.1,0-0.2-0.1-0.2-0.2v-13c0-0.1,0.1-0.2,0.2-0.2h4.1C130.3,13.3,133,15.9,133,20z
			 M124.7,24.5h1.6c2.2,0,4.3-1.1,4.3-4.5s-2.1-4.5-4.3-4.5h-1.6c-0.1,0-0.1,0-0.1,0.1v8.8C124.5,24.5,124.6,24.5,124.7,24.5z"/>
		<path d="M137.8,13.5v13c0,0.1-0.1,0.2-0.2,0.2h-1.9c-0.1,0-0.2-0.1-0.2-0.2v-13c0-0.1,0.1-0.2,0.2-0.2h1.9
			C137.7,13.3,137.8,13.4,137.8,13.5z"/>
		<path d="M147.6,21.6v-1.7c0-0.1,0.1-0.2,0.2-0.2h5.8c0.1,0,0.2,0.1,0.2,0.2c-0.1,4.5-2.8,7.2-6.7,7.2c-4,0-7-2.9-7-7.1
			s3-7.1,7-7.1c2.3,0,4.3,1,5.5,2.6c0.1,0.1,0.1,0.2,0,0.3l-1.5,1.2c-0.1,0.1-0.2,0.1-0.3-0.1c-0.8-1.1-2.1-1.7-3.6-1.7
			c-2.7,0-4.6,2-4.6,4.7s1.8,4.7,4.5,4.7c2.1,0,3.5-1,3.9-2.7c0-0.1,0-0.1-0.1-0.1h-3.2C147.7,21.9,147.6,21.8,147.6,21.6z"/>
		<path d="M158.4,13.5v13c0,0.1-0.1,0.2-0.2,0.2h-1.9c-0.1,0-0.2-0.1-0.2-0.2v-13c0-0.1,0.1-0.2,0.2-0.2h1.9
			C158.3,13.3,158.4,13.4,158.4,13.5z"/>
		<path d="M169.6,13.5v1.8c0,0.1-0.1,0.2-0.2,0.2h-3.1c-0.1,0-0.1,0-0.1,0.1v10.9c0,0.1-0.1,0.2-0.2,0.2h-1.9
			c-0.1,0-0.2-0.1-0.2-0.2V15.6c0-0.1,0-0.1-0.1-0.1h-3.1c-0.1,0-0.2-0.1-0.2-0.2v-1.8c0-0.1,0.1-0.2,0.2-0.2h8.8
			C169.5,13.3,169.6,13.4,169.6,13.5z"/>
		<path d="M177,13.6l3.7,12.9c0,0.2,0,0.2-0.2,0.2h-2c-0.1,0-0.2-0.1-0.2-0.2l-0.7-2.4c0-0.1-0.1-0.2-0.2-0.2h-4.9
			c-0.1,0-0.2,0-0.2,0.2l-0.7,2.4c0,0.1-0.1,0.2-0.2,0.2h-2c-0.2,0-0.2-0.1-0.2-0.2l3.7-12.9c0.1-0.2,0.2-0.3,0.4-0.3h3.3
			C176.8,13.3,176.9,13.3,177,13.6z M173.1,21.8h3.7c0.1,0,0.1,0,0.1-0.1l-1.7-6c0-0.1-0.1-0.1-0.1-0.1h-0.2c-0.1,0-0.1,0-0.1,0.1
			l-1.7,6C173,21.7,173,21.8,173.1,21.8z"/>
		<path d="M182.9,13.3h1.9c0.1,0,0.2,0.1,0.2,0.2v10.9c0,0.1,0,0.1,0.1,0.1h4.3c0.1,0,0.2,0.1,0.2,0.2v1.8c0,0.1-0.1,0.2-0.2,0.2
			h-6.5c-0.1,0-0.2-0.1-0.2-0.2v-13C182.7,13.4,182.8,13.3,182.9,13.3z"/>
	</g>
	<g>
		<path d="M199.8,0.1V40h79.8V0.1H199.8z M239.4,39.2h-38.7V0.9h38.7V39.2z M278.9,39.2h-38.7V0.9h38.7V39.2z"/>
	</g>
	<path d="M220.3,28h-3.6c-0.1,0-0.2-0.1-0.2-0.2V22c0-0.1,0.1-0.2,0.2-0.2h3.6c2.2,0,3.5,1.3,3.5,3.1C223.8,26.7,222.5,28,220.3,28
		 M220,12c2.2,0,3.4,1.2,3.4,2.9s-1.2,3-3.4,3h-3.3c-0.1,0-0.2-0.1-0.2-0.2v-5.5c0-0.1,0.1-0.2,0.2-0.2H220z M225,19.5
		c1.7-1.1,2.7-2.8,2.7-5c0-3.7-2.5-6.5-7.2-6.5h-7.8c-0.2,0-0.4,0.2-0.4,0.4v23.1c0,0.2,0.2,0.4,0.4,0.4h8.1c4.8,0,7.3-2.9,7.3-6.7
		c0-2.5-1.2-4.4-3.2-5.4C224.8,19.7,224.8,19.6,225,19.5"/>
	<path d="M264.9,31.4c0,0-0.7-4.6-1-6.6c0.1,0,0.1,0,0.1,0c0.3-0.1,0.4-0.4,0.3-0.6c-0.8-1.4-1.1-3.1-1.1-4.7c0-1,0.2-2,0.5-3
		c0-0.1,0-0.1,0.1-0.2c0,0,0-0.1,0-0.1c0.2-0.5,0.6-1.5,0.7-2.6c0.1-0.9,0-1.7-0.2-2.4c-0.1-0.3-0.3-0.9-0.4-1.2c0,0,0-0.1-0.1-0.1
		c0.3-0.3,0.3-0.7,0.1-1.1c-0.3-0.4-0.8-0.6-1.2-0.4c0,0-0.1,0.1-0.2,0.1c-0.1-0.1-0.1-0.1-0.1-0.1c0,0-0.1-0.1-0.2-0.1c0,0,0,0,0,0
		C261.9,8.1,261.5,8,261,8c-0.2,0-0.5,0-0.7,0.1c-0.5,0.1-0.9,0.3-1.3,0.6c-0.2,0.1-0.4,0.1-0.4,0.1l-0.5,0c-0.3,0-0.5,0-0.5,0
		c-0.1,0-0.2,0.1-0.2,0.2c0,0,0.1,0.7,0.1,0.7c0,0.2,0.1,0.4,0.3,0.5l0,0c0,0,0.1,0.1,0.1,0.1c0.1,0.2,0.2,0.3,0.3,0.4
		c0,0,0.1,0,0.1,0c0.1-0.4,0.3,0,0.8-0.2c0.1-0.1,0.2,0.2,0.1,0.3l0,0.1c-0.1,0.2-0.3,0.4-0.6,0.4c-0.2,0-0.3,0-0.3,0.1
		c0,0.2,0,0.4,0.2,0.6c0.1,0,0.1,0,0.1,0c0.4,0.1,1.4,0.5,0.1,2c0,0-0.1,0.1-0.2,0.3c0,0-0.1,0.1-0.1,0.1l0,0.1l-3.9-1.5
		c-0.1,0-0.3-0.2-0.3-0.3l-0.4-0.7c-0.2-0.3-0.5-0.5-0.9-0.5c-0.3,0-0.5,0-0.5,0c-0.1,0-0.2,0-0.2,0.1c0,0.1,0,0.3,0.1,0.5l0.3,0.6
		c0,0,0.5,1,0.5,1c0,0.1,0.1,0.2,0.2,0.3c0,0,4,3.1,4,3.1l-4.3,2.1c-0.1,0.1-0.3,0.1-0.4,0c-0.2,0-0.4-0.1-0.4-0.1
		c-0.7-0.3-1.2-0.1-1.5,0.2c0,0-0.1,0.1-0.1,0.1c-0.1,0.1-0.1,0.3,0.1,0.3c0,0,0.7,0.4,0.8,0.5l1,0.6c0.2,0.1,0.4,0.1,0.5,0.1
		l4.1-0.8c0.1,1.6,0.5,2.9,0.5,2.9c-0.7,0.7-1.8,2.1-2.1,4c-0.2,1.1-0.1,2.1,0.2,3.3c-0.6,0-1.1,0.1-1.6,0.4
		c-0.4,0.3-0.5,0.9-0.5,1.1l3.2,0l0.3,0c0.3,0,0.4-0.3,0.4-0.3c0-0.1,0-0.2,0.1-0.3c0.1-0.6,0.2-1.3,0.8-2.5
		c0.5-0.9,1.3-1.8,1.3-1.8c0,0,1.4,2,3.7,3.4c-0.4,0-1,0.2-1.3,0.4c-0.5,0.3-0.7,0.9-0.7,1.2h3.4c0.2,0,0.4-0.1,0.5-0.4
		c0,0,0,0,0-0.1c0,0,0,0,0,0C264.9,31.4,264.9,31.4,264.9,31.4z"/>
	<g>
		<path d="M0,0v39.9L200.7,40V0.1L0,0z M199.9,39.2h-27.8h-11h-0.8h-7.5L0.8,39.1V0.8l152.1,0.1h7.5h0.8h11h27.8L199.9,39.2
			L199.9,39.2z"/>
	</g>
</g>
</svg>
