<svg viewBox="0 0 37 48" fill="none" xmlns="http://www.w3.org/2000/svg">
<style type="text/css">
	.st0{fill:#00A982;}
	.st1{fill:#FFFFFF;}
</style>
<g clip-path="url(#clip0_1_6)">
<path d="M19.8859 46.1649L19.8428 46.2173L19.8072 46.2751C19.5623 46.6722 19.0746 46.925 18.5 46.925C17.9254 46.925 17.4377 46.6722 17.1928 46.2751L17.1572 46.2173L17.1141 46.1649C14.6575 43.1771 10.6011 38.0377 7.1639 32.6497C5.44502 29.9552 3.89376 27.2183 2.77523 24.6713C1.64864 22.106 1 19.8192 1 18C1 8.67794 8.85128 1 18.5 1C28.1487 1 36 8.67794 36 18C36 19.8192 35.3514 22.106 34.2248 24.6713C33.1062 27.2183 31.555 29.9552 29.8361 32.6497C26.3989 38.0377 22.3425 43.1771 19.8859 46.1649Z" fill="#00A982" stroke="white" stroke-width="2"/>
<path d="M18.5 24C21.9058 24 24.6667 21.3137 24.6667 18C24.6667 14.6863 21.9058 12 18.5 12C15.0942 12 12.3333 14.6863 12.3333 18C12.3333 21.3137 15.0942 24 18.5 24Z" fill="white"/>
</g>
<defs>
<clipPath id="clip0_1_6">
<rect width="37" height="48" fill="white"/>
</clipPath>
</defs>
</svg>
